<?xml version="1.0" encoding="utf-8" standalone="no"?>
<!DOCTYPE svg PUBLIC "-//W3C//DTD SVG 1.1//EN"
  "http://www.w3.org/Graphics/SVG/1.1/DTD/svg11.dtd">
<svg xmlns:xlink="http://www.w3.org/1999/xlink" width="460.8pt" height="345.6pt" viewBox="0 0 460.8 345.6" xmlns="http://www.w3.org/2000/svg" version="1.1">
 <metadata>
  <rdf:RDF xmlns:dc="http://purl.org/dc/elements/1.1/" xmlns:cc="http://creativecommons.org/ns#" xmlns:rdf="http://www.w3.org/1999/02/22-rdf-syntax-ns#">
   <cc:Work>
    <dc:type rdf:resource="http://purl.org/dc/dcmitype/StillImage"/>
    <dc:date>2024-01-15T11:24:13.634955</dc:date>
    <dc:format>image/svg+xml</dc:format>
    <dc:creator>
     <cc:Agent>
      <dc:title>Matplotlib v3.8.1, https://matplotlib.org/</dc:title>
     </cc:Agent>
    </dc:creator>
   </cc:Work>
  </rdf:RDF>
 </metadata>
 <defs>
  <style type="text/css">*{stroke-linejoin: round; stroke-linecap: butt}</style>
 </defs>
 <g id="figure_1">
  <g id="patch_1">
   <path d="M 0 345.6 
L 460.8 345.6 
L 460.8 0 
L 0 0 
z
" style="fill: #ffffff"/>
  </g>
  <g id="axes_1">
   <g id="patch_2">
    <path d="M 53.03 317.72 
L 450 317.72 
L 450 10.8 
L 53.03 10.8 
z
" style="fill: #ffffff"/>
   </g>
   <g id="PolyCollection_1">
    <defs>
     <path id="m2a66f69a74" d="M 93.243029 -55.234076 
L 89.003133 -55.234076 
L 88.601702 -57.30641 
L 88.172855 -59.378744 
L 87.723971 -61.451077 
L 87.262733 -63.523411 
L 86.796181 -65.595745 
L 86.329744 -67.668079 
L 85.866372 -69.740413 
L 85.405936 -71.812747 
L 84.944993 -73.885081 
L 84.477013 -75.957415 
L 83.993067 -78.029749 
L 83.482939 -80.102083 
L 82.936522 -82.174417 
L 82.345351 -84.24675 
L 81.704043 -86.319084 
L 81.011444 -88.391418 
L 80.271305 -90.463752 
L 79.492373 -92.536086 
L 78.687842 -94.60842 
L 77.874245 -96.680754 
L 77.069906 -98.753088 
L 76.293184 -100.825422 
L 75.560733 -102.897756 
L 74.886019 -104.97009 
L 74.278275 -107.042423 
L 73.742004 -109.114757 
L 73.27707 -111.187091 
L 72.879302 -113.259425 
L 72.541514 -115.331759 
L 72.254779 -117.404093 
L 72.009777 -119.476427 
L 71.79809 -121.548761 
L 71.613283 -123.621095 
L 71.45169 -125.693429 
L 71.312842 -127.765763 
L 71.1995 -129.838096 
L 71.117306 -131.91043 
L 71.074091 -133.982764 
L 71.078906 -136.055098 
L 71.140903 -138.127432 
L 71.268182 -140.199766 
L 71.466771 -142.2721 
L 71.739855 -144.344434 
L 72.087372 -146.416768 
L 72.50601 -148.489102 
L 72.989577 -150.561435 
L 73.529648 -152.633769 
L 74.116358 -154.706103 
L 74.739182 -156.778437 
L 75.387572 -158.850771 
L 76.051387 -160.923105 
L 76.721095 -162.995439 
L 77.387817 -165.067773 
L 78.043305 -167.140107 
L 78.679953 -169.212441 
L 79.29093 -171.284775 
L 79.870432 -173.357108 
L 80.414049 -175.429442 
L 80.919133 -177.501776 
L 81.385087 -179.57411 
L 81.813459 -181.646444 
L 82.207799 -183.718778 
L 82.573256 -185.791112 
L 82.915966 -187.863446 
L 83.24233 -189.93578 
L 83.558283 -192.008114 
L 83.868678 -194.080448 
L 84.176885 -196.152781 
L 84.484659 -198.225115 
L 84.792279 -200.297449 
L 85.098933 -202.369783 
L 85.403249 -204.442117 
L 85.703863 -206.514451 
L 85.999907 -208.586785 
L 86.291304 -210.659119 
L 86.578803 -212.731453 
L 86.863736 -214.803787 
L 87.147525 -216.876121 
L 87.431037 -218.948454 
L 87.713897 -221.020788 
L 87.993887 -223.093122 
L 88.266558 -225.165456 
L 88.52513 -227.23779 
L 88.76075 -229.310124 
L 88.963095 -231.382458 
L 89.121299 -233.454792 
L 89.225134 -235.527126 
L 89.266336 -237.59946 
L 89.239957 -239.671794 
L 89.145577 -241.744127 
L 88.988201 -243.816461 
L 88.778674 -245.888795 
L 88.533434 -247.961129 
L 88.273546 -250.033463 
L 88.023002 -252.105797 
L 87.806439 -254.178131 
L 87.646545 -256.250465 
L 87.561503 -258.322799 
L 87.562895 -260.395133 
L 94.683266 -260.395133 
L 94.683266 -260.395133 
L 94.684659 -258.322799 
L 94.599617 -256.250465 
L 94.439722 -254.178131 
L 94.22316 -252.105797 
L 93.972616 -250.033463 
L 93.712728 -247.961129 
L 93.467488 -245.888795 
L 93.25796 -243.816461 
L 93.100585 -241.744127 
L 93.006204 -239.671794 
L 92.979825 -237.59946 
L 93.021028 -235.527126 
L 93.124863 -233.454792 
L 93.283067 -231.382458 
L 93.485411 -229.310124 
L 93.721031 -227.23779 
L 93.979603 -225.165456 
L 94.252274 -223.093122 
L 94.532265 -221.020788 
L 94.815125 -218.948454 
L 95.098637 -216.876121 
L 95.382426 -214.803787 
L 95.667358 -212.731453 
L 95.954858 -210.659119 
L 96.246255 -208.586785 
L 96.542299 -206.514451 
L 96.842913 -204.442117 
L 97.147228 -202.369783 
L 97.453883 -200.297449 
L 97.761503 -198.225115 
L 98.069277 -196.152781 
L 98.377484 -194.080448 
L 98.687879 -192.008114 
L 99.003831 -189.93578 
L 99.330196 -187.863446 
L 99.672906 -185.791112 
L 100.038362 -183.718778 
L 100.432702 -181.646444 
L 100.861075 -179.57411 
L 101.327028 -177.501776 
L 101.832113 -175.429442 
L 102.37573 -173.357108 
L 102.955232 -171.284775 
L 103.566208 -169.212441 
L 104.202857 -167.140107 
L 104.858344 -165.067773 
L 105.525067 -162.995439 
L 106.194775 -160.923105 
L 106.85859 -158.850771 
L 107.50698 -156.778437 
L 108.129803 -154.706103 
L 108.716513 -152.633769 
L 109.256584 -150.561435 
L 109.740151 -148.489102 
L 110.15879 -146.416768 
L 110.506307 -144.344434 
L 110.779391 -142.2721 
L 110.977979 -140.199766 
L 111.105259 -138.127432 
L 111.167256 -136.055098 
L 111.172071 -133.982764 
L 111.128855 -131.91043 
L 111.046662 -129.838096 
L 110.93332 -127.765763 
L 110.794471 -125.693429 
L 110.632878 -123.621095 
L 110.448071 -121.548761 
L 110.236385 -119.476427 
L 109.991383 -117.404093 
L 109.704647 -115.331759 
L 109.36686 -113.259425 
L 108.969092 -111.187091 
L 108.504158 -109.114757 
L 107.967887 -107.042423 
L 107.360143 -104.97009 
L 106.685429 -102.897756 
L 105.952978 -100.825422 
L 105.176256 -98.753088 
L 104.371917 -96.680754 
L 103.558319 -94.60842 
L 102.753789 -92.536086 
L 101.974857 -90.463752 
L 101.234718 -88.391418 
L 100.542118 -86.319084 
L 99.90081 -84.24675 
L 99.30964 -82.174417 
L 98.763223 -80.102083 
L 98.253094 -78.029749 
L 97.769149 -75.957415 
L 97.301169 -73.885081 
L 96.840226 -71.812747 
L 96.379789 -69.740413 
L 95.916418 -67.668079 
L 95.44998 -65.595745 
L 94.983429 -63.523411 
L 94.522191 -61.451077 
L 94.073307 -59.378744 
L 93.644459 -57.30641 
L 93.243029 -55.234076 
z
" style="stroke: #000000"/>
    </defs>
    <g clip-path="url(#p5e82f3fd90)">
     <use xlink:href="#m2a66f69a74" x="0" y="345.6" style="fill: #808080; stroke: #000000"/>
    </g>
   </g>
   <g id="PolyCollection_2">
    <defs>
     <path id="md9417856d7" d="M 171.978062 -109.392728 
L 170.660019 -109.392728 
L 170.562646 -110.917996 
L 170.455113 -112.443264 
L 170.33509 -113.968531 
L 170.199377 -115.493799 
L 170.043897 -117.019067 
L 169.863805 -118.544334 
L 169.653714 -120.069602 
L 169.408066 -121.59487 
L 169.121591 -123.120137 
L 168.789836 -124.645405 
L 168.409688 -126.170673 
L 167.979812 -127.69594 
L 167.500957 -129.221208 
L 166.976049 -130.746476 
L 166.410063 -132.271743 
L 165.809672 -133.797011 
L 165.182718 -135.322279 
L 164.537568 -136.847546 
L 163.882437 -138.372814 
L 163.224768 -139.898082 
L 162.570737 -141.423349 
L 161.924936 -142.948617 
L 161.290254 -144.473885 
L 160.667954 -145.999152 
L 160.057904 -147.52442 
L 159.458948 -149.049688 
L 158.869323 -150.574955 
L 158.287122 -152.100223 
L 157.710718 -153.625491 
L 157.139154 -155.150758 
L 156.572449 -156.676026 
L 156.011811 -158.201294 
L 155.459746 -159.726561 
L 154.920041 -161.251829 
L 154.397617 -162.777097 
L 153.898268 -164.302364 
L 153.428277 -165.827632 
L 152.993966 -167.3529 
L 152.601215 -168.878167 
L 152.255023 -170.403435 
L 151.959152 -171.928703 
L 151.715936 -173.45397 
L 151.526261 -174.979238 
L 151.389727 -176.504505 
L 151.304966 -178.029773 
L 151.270051 -179.555041 
L 151.282918 -181.080308 
L 151.341731 -182.605576 
L 151.445105 -184.130844 
L 151.592172 -185.656111 
L 151.782457 -187.181379 
L 152.015615 -188.706647 
L 152.291084 -190.231914 
L 152.607723 -191.757182 
L 152.963518 -193.28245 
L 153.355422 -194.807717 
L 153.779359 -196.332985 
L 154.230385 -197.858253 
L 154.702995 -199.38352 
L 155.191502 -200.908788 
L 155.690445 -202.434056 
L 156.194942 -203.959323 
L 156.700968 -205.484591 
L 157.205523 -207.009859 
L 157.706687 -208.535126 
L 158.20359 -210.060394 
L 158.696311 -211.585662 
L 159.185736 -213.110929 
L 159.673388 -214.636197 
L 160.161246 -216.161465 
L 160.651533 -217.686732 
L 161.146484 -219.212 
L 161.648089 -220.737268 
L 162.157806 -222.262535 
L 162.676264 -223.787803 
L 163.202983 -225.313071 
L 163.736136 -226.838338 
L 164.272378 -228.363606 
L 164.806781 -229.888874 
L 165.332883 -231.414141 
L 165.842864 -232.939409 
L 166.327865 -234.464677 
L 166.778428 -235.989944 
L 167.185053 -237.515212 
L 167.538868 -239.04048 
L 167.832351 -240.565747 
L 168.060088 -242.091015 
L 168.219489 -243.616283 
L 168.311394 -245.14155 
L 168.340467 -246.666818 
L 168.315306 -248.192086 
L 168.24819 -249.717353 
L 168.154426 -251.242621 
L 168.051318 -252.767889 
L 167.956813 -254.293156 
L 167.887988 -255.818424 
L 167.859518 -257.343692 
L 167.882347 -258.868959 
L 167.96273 -260.394227 
L 174.675351 -260.394227 
L 174.675351 -260.394227 
L 174.755734 -258.868959 
L 174.778563 -257.343692 
L 174.750093 -255.818424 
L 174.681268 -254.293156 
L 174.586763 -252.767889 
L 174.483654 -251.242621 
L 174.389891 -249.717353 
L 174.322775 -248.192086 
L 174.297614 -246.666818 
L 174.326687 -245.14155 
L 174.418592 -243.616283 
L 174.577993 -242.091015 
L 174.80573 -240.565747 
L 175.099213 -239.04048 
L 175.453027 -237.515212 
L 175.859653 -235.989944 
L 176.310215 -234.464677 
L 176.795217 -232.939409 
L 177.305198 -231.414141 
L 177.831299 -229.888874 
L 178.365703 -228.363606 
L 178.901945 -226.838338 
L 179.435098 -225.313071 
L 179.961817 -223.787803 
L 180.480275 -222.262535 
L 180.989991 -220.737268 
L 181.491597 -219.212 
L 181.986548 -217.686732 
L 182.476835 -216.161465 
L 182.964693 -214.636197 
L 183.452345 -213.110929 
L 183.94177 -211.585662 
L 184.434491 -210.060394 
L 184.931394 -208.535126 
L 185.432558 -207.009859 
L 185.937112 -205.484591 
L 186.443139 -203.959323 
L 186.947635 -202.434056 
L 187.446578 -200.908788 
L 187.935086 -199.38352 
L 188.407696 -197.858253 
L 188.858722 -196.332985 
L 189.282658 -194.807717 
L 189.674563 -193.28245 
L 190.030358 -191.757182 
L 190.346997 -190.231914 
L 190.622466 -188.706647 
L 190.855624 -187.181379 
L 191.045909 -185.656111 
L 191.192975 -184.130844 
L 191.29635 -182.605576 
L 191.355163 -181.080308 
L 191.36803 -179.555041 
L 191.333115 -178.029773 
L 191.248354 -176.504505 
L 191.11182 -174.979238 
L 190.922145 -173.45397 
L 190.678929 -171.928703 
L 190.383058 -170.403435 
L 190.036866 -168.878167 
L 189.644115 -167.3529 
L 189.209804 -165.827632 
L 188.739812 -164.302364 
L 188.240463 -162.777097 
L 187.71804 -161.251829 
L 187.178334 -159.726561 
L 186.62627 -158.201294 
L 186.065632 -156.676026 
L 185.498927 -155.150758 
L 184.927363 -153.625491 
L 184.350959 -152.100223 
L 183.768757 -150.574955 
L 183.179133 -149.049688 
L 182.580176 -147.52442 
L 181.970127 -145.999152 
L 181.347826 -144.473885 
L 180.713145 -142.948617 
L 180.067344 -141.423349 
L 179.413313 -139.898082 
L 178.755644 -138.372814 
L 178.100513 -136.847546 
L 177.455363 -135.322279 
L 176.828409 -133.797011 
L 176.228018 -132.271743 
L 175.662032 -130.746476 
L 175.137124 -129.221208 
L 174.658269 -127.69594 
L 174.228393 -126.170673 
L 173.848244 -124.645405 
L 173.51649 -123.120137 
L 173.230015 -121.59487 
L 172.984367 -120.069602 
L 172.774276 -118.544334 
L 172.594183 -117.019067 
L 172.438704 -115.493799 
L 172.30299 -113.968531 
L 172.182967 -112.443264 
L 172.075435 -110.917996 
L 171.978062 -109.392728 
z
" style="stroke: #000000"/>
    </defs>
    <g clip-path="url(#p5e82f3fd90)">
     <use xlink:href="#md9417856d7" x="0" y="345.6" style="fill: #808080; stroke: #000000"/>
    </g>
   </g>
   <g id="PolyCollection_3">
    <defs>
     <path id="m3dbc994294" d="M 252.905253 -126.056229 
L 250.124747 -126.056229 
L 249.927539 -127.413125 
L 249.715167 -128.770021 
L 249.487032 -130.126918 
L 249.242571 -131.483814 
L 248.981385 -132.840711 
L 248.703366 -134.197607 
L 248.408759 -135.554504 
L 248.098146 -136.9114 
L 247.77233 -138.268297 
L 247.432127 -139.625193 
L 247.078099 -140.98209 
L 246.710265 -142.338986 
L 246.327843 -143.695883 
L 245.929084 -145.052779 
L 245.51123 -146.409676 
L 245.07062 -147.766572 
L 244.602947 -149.123469 
L 244.10365 -150.480365 
L 243.568409 -151.837262 
L 242.99368 -153.194158 
L 242.377241 -154.551055 
L 241.718683 -155.907951 
L 241.019801 -157.264848 
L 240.284827 -158.621744 
L 239.52049 -159.978641 
L 238.735858 -161.335537 
L 237.941975 -162.692434 
L 237.151296 -164.04933 
L 236.376983 -165.406227 
L 235.632111 -166.763123 
L 234.928889 -168.12002 
L 234.277962 -169.476916 
L 233.687897 -170.833813 
L 233.164887 -172.190709 
L 232.7127 -173.547606 
L 232.332858 -174.904502 
L 232.024996 -176.261399 
L 231.787317 -177.618295 
L 231.61709 -178.975192 
L 231.5111 -180.332088 
L 231.46601 -181.688985 
L 231.47861 -183.045881 
L 231.545951 -184.402778 
L 231.665378 -185.759674 
L 231.834486 -187.116571 
L 232.051028 -188.473467 
L 232.312795 -189.830364 
L 232.617481 -191.18726 
L 232.962544 -192.544157 
L 233.34508 -193.901053 
L 233.761709 -195.25795 
L 234.208494 -196.614846 
L 234.680906 -197.971743 
L 235.17386 -199.328639 
L 235.681829 -200.685536 
L 236.199044 -202.042432 
L 236.719779 -203.399329 
L 237.238699 -204.756225 
L 237.75124 -206.113122 
L 238.253971 -207.470018 
L 238.744891 -208.826915 
L 239.223615 -210.183811 
L 239.691402 -211.540708 
L 240.151003 -212.897604 
L 240.606343 -214.254501 
L 241.062039 -215.611397 
L 241.522834 -216.968294 
L 241.992981 -218.32519 
L 242.475677 -219.682087 
L 242.972597 -221.038983 
L 243.483595 -222.39588 
L 244.006593 -223.752776 
L 244.537673 -225.109673 
L 245.071332 -226.466569 
L 245.600883 -227.823465 
L 246.118915 -229.180362 
L 246.617775 -230.537258 
L 247.090003 -231.894155 
L 247.528679 -233.251051 
L 247.927683 -234.607948 
L 248.281831 -235.964844 
L 248.586953 -237.321741 
L 248.839914 -238.678637 
L 249.038634 -240.035534 
L 249.182151 -241.39243 
L 249.270743 -242.749327 
L 249.306109 -244.106223 
L 249.291604 -245.46312 
L 249.232457 -246.820016 
L 249.13593 -248.176913 
L 249.011329 -249.533809 
L 248.869814 -250.890706 
L 248.723963 -252.247602 
L 248.587088 -253.604499 
L 248.472353 -254.961395 
L 248.391771 -256.318292 
L 248.355199 -257.675188 
L 248.369474 -259.032085 
L 248.437804 -260.388981 
L 254.592196 -260.388981 
L 254.592196 -260.388981 
L 254.660526 -259.032085 
L 254.674801 -257.675188 
L 254.638229 -256.318292 
L 254.557647 -254.961395 
L 254.442912 -253.604499 
L 254.306037 -252.247602 
L 254.160186 -250.890706 
L 254.018671 -249.533809 
L 253.89407 -248.176913 
L 253.797543 -246.820016 
L 253.738396 -245.46312 
L 253.723891 -244.106223 
L 253.759257 -242.749327 
L 253.847849 -241.39243 
L 253.991366 -240.035534 
L 254.190086 -238.678637 
L 254.443047 -237.321741 
L 254.748169 -235.964844 
L 255.102317 -234.607948 
L 255.501321 -233.251051 
L 255.939997 -231.894155 
L 256.412225 -230.537258 
L 256.911085 -229.180362 
L 257.429117 -227.823465 
L 257.958668 -226.466569 
L 258.492327 -225.109673 
L 259.023407 -223.752776 
L 259.546405 -222.39588 
L 260.057403 -221.038983 
L 260.554323 -219.682087 
L 261.037019 -218.32519 
L 261.507166 -216.968294 
L 261.967961 -215.611397 
L 262.423657 -214.254501 
L 262.878997 -212.897604 
L 263.338598 -211.540708 
L 263.806385 -210.183811 
L 264.285109 -208.826915 
L 264.776029 -207.470018 
L 265.27876 -206.113122 
L 265.791301 -204.756225 
L 266.310221 -203.399329 
L 266.830956 -202.042432 
L 267.348171 -200.685536 
L 267.85614 -199.328639 
L 268.349094 -197.971743 
L 268.821506 -196.614846 
L 269.268291 -195.25795 
L 269.68492 -193.901053 
L 270.067456 -192.544157 
L 270.412519 -191.18726 
L 270.717205 -189.830364 
L 270.978972 -188.473467 
L 271.195514 -187.116571 
L 271.364622 -185.759674 
L 271.484049 -184.402778 
L 271.55139 -183.045881 
L 271.56399 -181.688985 
L 271.5189 -180.332088 
L 271.41291 -178.975192 
L 271.242683 -177.618295 
L 271.005004 -176.261399 
L 270.697142 -174.904502 
L 270.3173 -173.547606 
L 269.865113 -172.190709 
L 269.342103 -170.833813 
L 268.752038 -169.476916 
L 268.101111 -168.12002 
L 267.397889 -166.763123 
L 266.653017 -165.406227 
L 265.878704 -164.04933 
L 265.088025 -162.692434 
L 264.294142 -161.335537 
L 263.50951 -159.978641 
L 262.745173 -158.621744 
L 262.010199 -157.264848 
L 261.311317 -155.907951 
L 260.652759 -154.551055 
L 260.03632 -153.194158 
L 259.461591 -151.837262 
L 258.92635 -150.480365 
L 258.427053 -149.123469 
L 257.95938 -147.766572 
L 257.51877 -146.409676 
L 257.100916 -145.052779 
L 256.702157 -143.695883 
L 256.319735 -142.338986 
L 255.951901 -140.98209 
L 255.597873 -139.625193 
L 255.25767 -138.268297 
L 254.931854 -136.9114 
L 254.621241 -135.554504 
L 254.326634 -134.197607 
L 254.048615 -132.840711 
L 253.787429 -131.483814 
L 253.542968 -130.126918 
L 253.314833 -128.770021 
L 253.102461 -127.413125 
L 252.905253 -126.056229 
z
" style="stroke: #000000"/>
    </defs>
    <g clip-path="url(#p5e82f3fd90)">
     <use xlink:href="#m3dbc994294" x="0" y="345.6" style="fill: #808080; stroke: #000000"/>
    </g>
   </g>
   <g id="PolyCollection_4">
    <defs>
     <path id="me0fda51541" d="M 332.255809 -58.341965 
L 331.16611 -58.341965 
L 331.002473 -60.382905 
L 330.804422 -62.423844 
L 330.567617 -64.464784 
L 330.287457 -66.505724 
L 329.95924 -68.546664 
L 329.578497 -70.587603 
L 329.14151 -72.628543 
L 328.645954 -74.669483 
L 328.091567 -76.710422 
L 327.480689 -78.751362 
L 326.818558 -80.792302 
L 326.113245 -82.833242 
L 325.375233 -84.874181 
L 324.616687 -86.915121 
L 323.850543 -88.956061 
L 323.089554 -90.997001 
L 322.34541 -93.03794 
L 321.627989 -95.07888 
L 320.944774 -97.11982 
L 320.300419 -99.16076 
L 319.6965 -101.201699 
L 319.131528 -103.242639 
L 318.601309 -105.283579 
L 318.099742 -107.324518 
L 317.620029 -109.365458 
L 317.156118 -111.406398 
L 316.704036 -113.447338 
L 316.262667 -115.488277 
L 315.833636 -117.529217 
L 315.420192 -119.570157 
L 315.025367 -121.611097 
L 314.650062 -123.652036 
L 314.291861 -125.692976 
L 313.945241 -127.733916 
L 313.603385 -129.774856 
L 313.261185 -131.815795 
L 312.918499 -133.856735 
L 312.582499 -135.897675 
L 312.268182 -137.938614 
L 311.996665 -139.979554 
L 311.791625 -142.020494 
L 311.674831 -144.061434 
L 311.66197 -146.102373 
L 311.759854 -148.143313 
L 311.965632 -150.184253 
L 312.268052 -152.225193 
L 312.650325 -154.266132 
L 313.093758 -156.307072 
L 313.581251 -158.348012 
L 314.099874 -160.388952 
L 314.642009 -162.429891 
L 315.204895 -164.470831 
L 315.788839 -166.511771 
L 316.394639 -168.55271 
L 317.020998 -170.59365 
L 317.662703 -172.63459 
L 318.310155 -174.67553 
L 318.950446 -176.716469 
L 319.569757 -178.757409 
L 320.156414 -180.798349 
L 320.703747 -182.839289 
L 321.211929 -184.880228 
L 321.688224 -186.921168 
L 322.145508 -188.962108 
L 322.599393 -191.003048 
L 323.064628 -193.043987 
L 323.551648 -195.084927 
L 324.064101 -197.125867 
L 324.597935 -199.166806 
L 325.142256 -201.207746 
L 325.6817 -203.248686 
L 326.199698 -205.289626 
L 326.681807 -207.330565 
L 327.118277 -209.371505 
L 327.505309 -211.412445 
L 327.844841 -213.453385 
L 328.143124 -215.494324 
L 328.40865 -217.535264 
L 328.650067 -219.576204 
L 328.874582 -221.617144 
L 329.087058 -223.658083 
L 329.289738 -225.699023 
L 329.482316 -227.739963 
L 329.66203 -229.780903 
L 329.823607 -231.821842 
L 329.959072 -233.862782 
L 330.057661 -235.903722 
L 330.106225 -237.944661 
L 330.090494 -239.985601 
L 329.997405 -242.026541 
L 329.818418 -244.067481 
L 329.553288 -246.10842 
L 329.213414 -248.14936 
L 328.82364 -250.1903 
L 328.421471 -252.23124 
L 328.053178 -254.272179 
L 327.767085 -256.313119 
L 327.605274 -258.354059 
L 327.595636 -260.394999 
L 335.826284 -260.394999 
L 335.826284 -260.394999 
L 335.816645 -258.354059 
L 335.654834 -256.313119 
L 335.368741 -254.272179 
L 335.000448 -252.23124 
L 334.598279 -250.1903 
L 334.208505 -248.14936 
L 333.868631 -246.10842 
L 333.603501 -244.067481 
L 333.424514 -242.026541 
L 333.331426 -239.985601 
L 333.315694 -237.944661 
L 333.364258 -235.903722 
L 333.462847 -233.862782 
L 333.598312 -231.821842 
L 333.759889 -229.780903 
L 333.939603 -227.739963 
L 334.132181 -225.699023 
L 334.334862 -223.658083 
L 334.547337 -221.617144 
L 334.771852 -219.576204 
L 335.01327 -217.535264 
L 335.278795 -215.494324 
L 335.577078 -213.453385 
L 335.91661 -211.412445 
L 336.303643 -209.371505 
L 336.740112 -207.330565 
L 337.222221 -205.289626 
L 337.740219 -203.248686 
L 338.279663 -201.207746 
L 338.823985 -199.166806 
L 339.357818 -197.125867 
L 339.870271 -195.084927 
L 340.357291 -193.043987 
L 340.822526 -191.003048 
L 341.276411 -188.962108 
L 341.733695 -186.921168 
L 342.20999 -184.880228 
L 342.718173 -182.839289 
L 343.265506 -180.798349 
L 343.852162 -178.757409 
L 344.471474 -176.716469 
L 345.111765 -174.67553 
L 345.759216 -172.63459 
L 346.400921 -170.59365 
L 347.02728 -168.55271 
L 347.633081 -166.511771 
L 348.217025 -164.470831 
L 348.779911 -162.429891 
L 349.322045 -160.388952 
L 349.840668 -158.348012 
L 350.328161 -156.307072 
L 350.771594 -154.266132 
L 351.153868 -152.225193 
L 351.456288 -150.184253 
L 351.662065 -148.143313 
L 351.759949 -146.102373 
L 351.747088 -144.061434 
L 351.630294 -142.020494 
L 351.425254 -139.979554 
L 351.153737 -137.938614 
L 350.83942 -135.897675 
L 350.50342 -133.856735 
L 350.160734 -131.815795 
L 349.818534 -129.774856 
L 349.476678 -127.733916 
L 349.130058 -125.692976 
L 348.771857 -123.652036 
L 348.396552 -121.611097 
L 348.001727 -119.570157 
L 347.588283 -117.529217 
L 347.159252 -115.488277 
L 346.717883 -113.447338 
L 346.265801 -111.406398 
L 345.801891 -109.365458 
L 345.322177 -107.324518 
L 344.82061 -105.283579 
L 344.290391 -103.242639 
L 343.725419 -101.201699 
L 343.121501 -99.16076 
L 342.477145 -97.11982 
L 341.79393 -95.07888 
L 341.07651 -93.03794 
L 340.332365 -90.997001 
L 339.571376 -88.956061 
L 338.805232 -86.915121 
L 338.046686 -84.874181 
L 337.308674 -82.833242 
L 336.603361 -80.792302 
L 335.94123 -78.751362 
L 335.330352 -76.710422 
L 334.775965 -74.669483 
L 334.280409 -72.628543 
L 333.843422 -70.587603 
L 333.462679 -68.546664 
L 333.134462 -66.505724 
L 332.854302 -64.464784 
L 332.617497 -62.423844 
L 332.419447 -60.382905 
L 332.255809 -58.341965 
z
" style="stroke: #000000"/>
    </defs>
    <g clip-path="url(#p5e82f3fd90)">
     <use xlink:href="#me0fda51541" x="0" y="345.6" style="fill: #808080; stroke: #000000"/>
    </g>
   </g>
   <g id="PolyCollection_5">
    <defs>
     <path id="mf2654bf9c5" d="M 411.960901 -55.234076 
L 411.852938 -55.234076 
L 411.829186 -57.30641 
L 411.799001 -59.378744 
L 411.762249 -61.451077 
L 411.720129 -63.523411 
L 411.675228 -65.595745 
L 411.630603 -67.668079 
L 411.588233 -69.740413 
L 411.547838 -71.812747 
L 411.506853 -73.885081 
L 411.461602 -75.957415 
L 411.408882 -78.029749 
L 411.34705 -80.102083 
L 411.276188 -82.174417 
L 411.197436 -84.24675 
L 411.111861 -86.319084 
L 411.019469 -88.391418 
L 410.919222 -90.463752 
L 410.810514 -92.536086 
L 410.695228 -94.60842 
L 410.578542 -96.680754 
L 410.467493 -98.753088 
L 410.368254 -100.825422 
L 410.284094 -102.897756 
L 410.215121 -104.97009 
L 410.159393 -107.042423 
L 410.114013 -109.114757 
L 410.075134 -111.187091 
L 410.037121 -113.259425 
L 409.992724 -115.331759 
L 409.936002 -117.404093 
L 409.866953 -119.476427 
L 409.79368 -121.548761 
L 409.728551 -123.621095 
L 409.679786 -125.693429 
L 409.644701 -127.765763 
L 409.610129 -129.838096 
L 409.5599 -131.91043 
L 409.484044 -133.982764 
L 409.384003 -136.055098 
L 409.271747 -138.127432 
L 409.164354 -140.199766 
L 409.077083 -142.2721 
L 409.017734 -144.344434 
L 408.984303 -146.416768 
L 408.966614 -148.489102 
L 408.950794 -150.561435 
L 408.924061 -152.633769 
L 408.877499 -154.706103 
L 408.806193 -156.778437 
L 408.708004 -158.850771 
L 408.582962 -160.923105 
L 408.433934 -162.995439 
L 408.267014 -165.067773 
L 408.089218 -167.140107 
L 407.903288 -169.212441 
L 407.702851 -171.284775 
L 407.472022 -173.357108 
L 407.190226 -175.429442 
L 406.838644 -177.501776 
L 406.403763 -179.57411 
L 405.876679 -181.646444 
L 405.250504 -183.718778 
L 404.519103 -185.791112 
L 403.678713 -187.863446 
L 402.732141 -189.93578 
L 401.693672 -192.008114 
L 400.591263 -194.080448 
L 399.462587 -196.152781 
L 398.345068 -198.225115 
L 397.265288 -200.297449 
L 396.234914 -202.369783 
L 395.256177 -204.442117 
L 394.333688 -206.514451 
L 393.486132 -208.586785 
L 392.752567 -210.659119 
L 392.191179 -212.731453 
L 391.870909 -214.803787 
L 391.857929 -216.876121 
L 392.200605 -218.948454 
L 392.917915 -221.020788 
L 393.995747 -223.093122 
L 395.391829 -225.165456 
L 397.045063 -227.23779 
L 398.882746 -229.310124 
L 400.822457 -231.382458 
L 402.771603 -233.454792 
L 404.630883 -235.527126 
L 406.304679 -237.59946 
L 407.714682 -239.671794 
L 408.80918 -241.744127 
L 409.563019 -243.816461 
L 409.970884 -245.888795 
L 410.04353 -247.961129 
L 409.816647 -250.033463 
L 409.37147 -252.105797 
L 408.849696 -254.178131 
L 408.43709 -256.250465 
L 408.305649 -258.322799 
L 408.539276 -260.395133 
L 415.274562 -260.395133 
L 415.274562 -260.395133 
L 415.508189 -258.322799 
L 415.376749 -256.250465 
L 414.964142 -254.178131 
L 414.442369 -252.105797 
L 413.997191 -250.033463 
L 413.770308 -247.961129 
L 413.842955 -245.888795 
L 414.250819 -243.816461 
L 415.004659 -241.744127 
L 416.099157 -239.671794 
L 417.50916 -237.59946 
L 419.182955 -235.527126 
L 421.042236 -233.454792 
L 422.991382 -231.382458 
L 424.931092 -229.310124 
L 426.768776 -227.23779 
L 428.422009 -225.165456 
L 429.818091 -223.093122 
L 430.895923 -221.020788 
L 431.613233 -218.948454 
L 431.955909 -216.876121 
L 431.942929 -214.803787 
L 431.622659 -212.731453 
L 431.061272 -210.659119 
L 430.327706 -208.586785 
L 429.48015 -206.514451 
L 428.557661 -204.442117 
L 427.578924 -202.369783 
L 426.54855 -200.297449 
L 425.46877 -198.225115 
L 424.351251 -196.152781 
L 423.222576 -194.080448 
L 422.120166 -192.008114 
L 421.081697 -189.93578 
L 420.135126 -187.863446 
L 419.294735 -185.791112 
L 418.563334 -183.718778 
L 417.937159 -181.646444 
L 417.410075 -179.57411 
L 416.975195 -177.501776 
L 416.623613 -175.429442 
L 416.341817 -173.357108 
L 416.110988 -171.284775 
L 415.910551 -169.212441 
L 415.724621 -167.140107 
L 415.546825 -165.067773 
L 415.379905 -162.995439 
L 415.230877 -160.923105 
L 415.105834 -158.850771 
L 415.007646 -156.778437 
L 414.93634 -154.706103 
L 414.889778 -152.633769 
L 414.863044 -150.561435 
L 414.847224 -148.489102 
L 414.829535 -146.416768 
L 414.796104 -144.344434 
L 414.736756 -142.2721 
L 414.649485 -140.199766 
L 414.542092 -138.127432 
L 414.429835 -136.055098 
L 414.329795 -133.982764 
L 414.253938 -131.91043 
L 414.203709 -129.838096 
L 414.169137 -127.765763 
L 414.134053 -125.693429 
L 414.085288 -123.621095 
L 414.020158 -121.548761 
L 413.946886 -119.476427 
L 413.877836 -117.404093 
L 413.821114 -115.331759 
L 413.776717 -113.259425 
L 413.738704 -111.187091 
L 413.699825 -109.114757 
L 413.654445 -107.042423 
L 413.598717 -104.97009 
L 413.529745 -102.897756 
L 413.445584 -100.825422 
L 413.346346 -98.753088 
L 413.235296 -96.680754 
L 413.11861 -94.60842 
L 413.003324 -92.536086 
L 412.894617 -90.463752 
L 412.79437 -88.391418 
L 412.701977 -86.319084 
L 412.616402 -84.24675 
L 412.53765 -82.174417 
L 412.466788 -80.102083 
L 412.404957 -78.029749 
L 412.352236 -75.957415 
L 412.306985 -73.885081 
L 412.266 -71.812747 
L 412.225605 -69.740413 
L 412.183236 -67.668079 
L 412.13861 -65.595745 
L 412.09371 -63.523411 
L 412.051589 -61.451077 
L 412.014837 -59.378744 
L 411.984652 -57.30641 
L 411.960901 -55.234076 
z
" style="stroke: #000000"/>
    </defs>
    <g clip-path="url(#p5e82f3fd90)">
     <use xlink:href="#mf2654bf9c5" x="0" y="345.6" style="fill: #808080; stroke: #000000"/>
    </g>
   </g>
   <g id="matplotlib.axis_1">
    <g id="xtick_1">
     <g id="line2d_1">
      <defs>
       <path id="m37bf96eb6e" d="M 0 0 
L 0 3.5 
" style="stroke: #000000; stroke-width: 0.8"/>
      </defs>
      <g>
       <use xlink:href="#m37bf96eb6e" x="91.123081" y="317.72" style="stroke: #000000; stroke-width: 0.8"/>
      </g>
     </g>
     <g id="text_1">
      <!-- WW -->
      <g transform="translate(81.235581 332.318437) scale(0.1 -0.1)">
       <defs>
        <path id="DejaVuSans-57" d="M 213 4666 
L 850 4666 
L 1831 722 
L 2809 4666 
L 3519 4666 
L 4500 722 
L 5478 4666 
L 6119 4666 
L 4947 0 
L 4153 0 
L 3169 4050 
L 2175 0 
L 1381 0 
L 213 4666 
z
" transform="scale(0.015625)"/>
       </defs>
       <use xlink:href="#DejaVuSans-57"/>
       <use xlink:href="#DejaVuSans-57" x="98.876953"/>
      </g>
     </g>
    </g>
    <g id="xtick_2">
     <g id="line2d_2">
      <g>
       <use xlink:href="#m37bf96eb6e" x="171.31904" y="317.72" style="stroke: #000000; stroke-width: 0.8"/>
      </g>
     </g>
     <g id="text_2">
      <!-- IPV #1 -->
      <g transform="translate(154.448728 332.318437) scale(0.1 -0.1)">
       <defs>
        <path id="DejaVuSans-49" d="M 628 4666 
L 1259 4666 
L 1259 0 
L 628 0 
L 628 4666 
z
" transform="scale(0.015625)"/>
        <path id="DejaVuSans-50" d="M 1259 4147 
L 1259 2394 
L 2053 2394 
Q 2494 2394 2734 2622 
Q 2975 2850 2975 3272 
Q 2975 3691 2734 3919 
Q 2494 4147 2053 4147 
L 1259 4147 
z
M 628 4666 
L 2053 4666 
Q 2838 4666 3239 4311 
Q 3641 3956 3641 3272 
Q 3641 2581 3239 2228 
Q 2838 1875 2053 1875 
L 1259 1875 
L 1259 0 
L 628 0 
L 628 4666 
z
" transform="scale(0.015625)"/>
        <path id="DejaVuSans-56" d="M 1831 0 
L 50 4666 
L 709 4666 
L 2188 738 
L 3669 4666 
L 4325 4666 
L 2547 0 
L 1831 0 
z
" transform="scale(0.015625)"/>
        <path id="DejaVuSans-20" transform="scale(0.015625)"/>
        <path id="DejaVuSans-23" d="M 3272 2816 
L 2363 2816 
L 2100 1772 
L 3016 1772 
L 3272 2816 
z
M 2803 4594 
L 2478 3297 
L 3391 3297 
L 3719 4594 
L 4219 4594 
L 3897 3297 
L 4872 3297 
L 4872 2816 
L 3775 2816 
L 3519 1772 
L 4513 1772 
L 4513 1294 
L 3397 1294 
L 3072 0 
L 2572 0 
L 2894 1294 
L 1978 1294 
L 1656 0 
L 1153 0 
L 1478 1294 
L 494 1294 
L 494 1772 
L 1594 1772 
L 1856 2816 
L 850 2816 
L 850 3297 
L 1978 3297 
L 2297 4594 
L 2803 4594 
z
" transform="scale(0.015625)"/>
        <path id="DejaVuSans-31" d="M 794 531 
L 1825 531 
L 1825 4091 
L 703 3866 
L 703 4441 
L 1819 4666 
L 2450 4666 
L 2450 531 
L 3481 531 
L 3481 0 
L 794 0 
L 794 531 
z
" transform="scale(0.015625)"/>
       </defs>
       <use xlink:href="#DejaVuSans-49"/>
       <use xlink:href="#DejaVuSans-50" x="29.492188"/>
       <use xlink:href="#DejaVuSans-56" x="89.794922"/>
       <use xlink:href="#DejaVuSans-20" x="158.203125"/>
       <use xlink:href="#DejaVuSans-23" x="189.990234"/>
       <use xlink:href="#DejaVuSans-31" x="273.779297"/>
      </g>
     </g>
    </g>
    <g id="xtick_3">
     <g id="line2d_3">
      <g>
       <use xlink:href="#m37bf96eb6e" x="251.515" y="317.72" style="stroke: #000000; stroke-width: 0.8"/>
      </g>
     </g>
     <g id="text_3">
      <!-- IPV #2 -->
      <g transform="translate(234.644687 332.318437) scale(0.1 -0.1)">
       <defs>
        <path id="DejaVuSans-32" d="M 1228 531 
L 3431 531 
L 3431 0 
L 469 0 
L 469 531 
Q 828 903 1448 1529 
Q 2069 2156 2228 2338 
Q 2531 2678 2651 2914 
Q 2772 3150 2772 3378 
Q 2772 3750 2511 3984 
Q 2250 4219 1831 4219 
Q 1534 4219 1204 4116 
Q 875 4013 500 3803 
L 500 4441 
Q 881 4594 1212 4672 
Q 1544 4750 1819 4750 
Q 2544 4750 2975 4387 
Q 3406 4025 3406 3419 
Q 3406 3131 3298 2873 
Q 3191 2616 2906 2266 
Q 2828 2175 2409 1742 
Q 1991 1309 1228 531 
z
" transform="scale(0.015625)"/>
       </defs>
       <use xlink:href="#DejaVuSans-49"/>
       <use xlink:href="#DejaVuSans-50" x="29.492188"/>
       <use xlink:href="#DejaVuSans-56" x="89.794922"/>
       <use xlink:href="#DejaVuSans-20" x="158.203125"/>
       <use xlink:href="#DejaVuSans-23" x="189.990234"/>
       <use xlink:href="#DejaVuSans-32" x="273.779297"/>
      </g>
     </g>
    </g>
    <g id="xtick_4">
     <g id="line2d_4">
      <g>
       <use xlink:href="#m37bf96eb6e" x="331.71096" y="317.72" style="stroke: #000000; stroke-width: 0.8"/>
      </g>
     </g>
     <g id="text_4">
      <!-- BAG domain -->
      <g transform="translate(300.758616 332.318437) scale(0.1 -0.1)">
       <defs>
        <path id="DejaVuSans-42" d="M 1259 2228 
L 1259 519 
L 2272 519 
Q 2781 519 3026 730 
Q 3272 941 3272 1375 
Q 3272 1813 3026 2020 
Q 2781 2228 2272 2228 
L 1259 2228 
z
M 1259 4147 
L 1259 2741 
L 2194 2741 
Q 2656 2741 2882 2914 
Q 3109 3088 3109 3444 
Q 3109 3797 2882 3972 
Q 2656 4147 2194 4147 
L 1259 4147 
z
M 628 4666 
L 2241 4666 
Q 2963 4666 3353 4366 
Q 3744 4066 3744 3513 
Q 3744 3084 3544 2831 
Q 3344 2578 2956 2516 
Q 3422 2416 3680 2098 
Q 3938 1781 3938 1306 
Q 3938 681 3513 340 
Q 3088 0 2303 0 
L 628 0 
L 628 4666 
z
" transform="scale(0.015625)"/>
        <path id="DejaVuSans-41" d="M 2188 4044 
L 1331 1722 
L 3047 1722 
L 2188 4044 
z
M 1831 4666 
L 2547 4666 
L 4325 0 
L 3669 0 
L 3244 1197 
L 1141 1197 
L 716 0 
L 50 0 
L 1831 4666 
z
" transform="scale(0.015625)"/>
        <path id="DejaVuSans-47" d="M 3809 666 
L 3809 1919 
L 2778 1919 
L 2778 2438 
L 4434 2438 
L 4434 434 
Q 4069 175 3628 42 
Q 3188 -91 2688 -91 
Q 1594 -91 976 548 
Q 359 1188 359 2328 
Q 359 3472 976 4111 
Q 1594 4750 2688 4750 
Q 3144 4750 3555 4637 
Q 3966 4525 4313 4306 
L 4313 3634 
Q 3963 3931 3569 4081 
Q 3175 4231 2741 4231 
Q 1884 4231 1454 3753 
Q 1025 3275 1025 2328 
Q 1025 1384 1454 906 
Q 1884 428 2741 428 
Q 3075 428 3337 486 
Q 3600 544 3809 666 
z
" transform="scale(0.015625)"/>
        <path id="DejaVuSans-64" d="M 2906 2969 
L 2906 4863 
L 3481 4863 
L 3481 0 
L 2906 0 
L 2906 525 
Q 2725 213 2448 61 
Q 2172 -91 1784 -91 
Q 1150 -91 751 415 
Q 353 922 353 1747 
Q 353 2572 751 3078 
Q 1150 3584 1784 3584 
Q 2172 3584 2448 3432 
Q 2725 3281 2906 2969 
z
M 947 1747 
Q 947 1113 1208 752 
Q 1469 391 1925 391 
Q 2381 391 2643 752 
Q 2906 1113 2906 1747 
Q 2906 2381 2643 2742 
Q 2381 3103 1925 3103 
Q 1469 3103 1208 2742 
Q 947 2381 947 1747 
z
" transform="scale(0.015625)"/>
        <path id="DejaVuSans-6f" d="M 1959 3097 
Q 1497 3097 1228 2736 
Q 959 2375 959 1747 
Q 959 1119 1226 758 
Q 1494 397 1959 397 
Q 2419 397 2687 759 
Q 2956 1122 2956 1747 
Q 2956 2369 2687 2733 
Q 2419 3097 1959 3097 
z
M 1959 3584 
Q 2709 3584 3137 3096 
Q 3566 2609 3566 1747 
Q 3566 888 3137 398 
Q 2709 -91 1959 -91 
Q 1206 -91 779 398 
Q 353 888 353 1747 
Q 353 2609 779 3096 
Q 1206 3584 1959 3584 
z
" transform="scale(0.015625)"/>
        <path id="DejaVuSans-6d" d="M 3328 2828 
Q 3544 3216 3844 3400 
Q 4144 3584 4550 3584 
Q 5097 3584 5394 3201 
Q 5691 2819 5691 2113 
L 5691 0 
L 5113 0 
L 5113 2094 
Q 5113 2597 4934 2840 
Q 4756 3084 4391 3084 
Q 3944 3084 3684 2787 
Q 3425 2491 3425 1978 
L 3425 0 
L 2847 0 
L 2847 2094 
Q 2847 2600 2669 2842 
Q 2491 3084 2119 3084 
Q 1678 3084 1418 2786 
Q 1159 2488 1159 1978 
L 1159 0 
L 581 0 
L 581 3500 
L 1159 3500 
L 1159 2956 
Q 1356 3278 1631 3431 
Q 1906 3584 2284 3584 
Q 2666 3584 2933 3390 
Q 3200 3197 3328 2828 
z
" transform="scale(0.015625)"/>
        <path id="DejaVuSans-61" d="M 2194 1759 
Q 1497 1759 1228 1600 
Q 959 1441 959 1056 
Q 959 750 1161 570 
Q 1363 391 1709 391 
Q 2188 391 2477 730 
Q 2766 1069 2766 1631 
L 2766 1759 
L 2194 1759 
z
M 3341 1997 
L 3341 0 
L 2766 0 
L 2766 531 
Q 2569 213 2275 61 
Q 1981 -91 1556 -91 
Q 1019 -91 701 211 
Q 384 513 384 1019 
Q 384 1609 779 1909 
Q 1175 2209 1959 2209 
L 2766 2209 
L 2766 2266 
Q 2766 2663 2505 2880 
Q 2244 3097 1772 3097 
Q 1472 3097 1187 3025 
Q 903 2953 641 2809 
L 641 3341 
Q 956 3463 1253 3523 
Q 1550 3584 1831 3584 
Q 2591 3584 2966 3190 
Q 3341 2797 3341 1997 
z
" transform="scale(0.015625)"/>
        <path id="DejaVuSans-69" d="M 603 3500 
L 1178 3500 
L 1178 0 
L 603 0 
L 603 3500 
z
M 603 4863 
L 1178 4863 
L 1178 4134 
L 603 4134 
L 603 4863 
z
" transform="scale(0.015625)"/>
        <path id="DejaVuSans-6e" d="M 3513 2113 
L 3513 0 
L 2938 0 
L 2938 2094 
Q 2938 2591 2744 2837 
Q 2550 3084 2163 3084 
Q 1697 3084 1428 2787 
Q 1159 2491 1159 1978 
L 1159 0 
L 581 0 
L 581 3500 
L 1159 3500 
L 1159 2956 
Q 1366 3272 1645 3428 
Q 1925 3584 2291 3584 
Q 2894 3584 3203 3211 
Q 3513 2838 3513 2113 
z
" transform="scale(0.015625)"/>
       </defs>
       <use xlink:href="#DejaVuSans-42"/>
       <use xlink:href="#DejaVuSans-41" x="68.603516"/>
       <use xlink:href="#DejaVuSans-47" x="135.261719"/>
       <use xlink:href="#DejaVuSans-20" x="212.751953"/>
       <use xlink:href="#DejaVuSans-64" x="244.539062"/>
       <use xlink:href="#DejaVuSans-6f" x="308.015625"/>
       <use xlink:href="#DejaVuSans-6d" x="369.197266"/>
       <use xlink:href="#DejaVuSans-61" x="466.609375"/>
       <use xlink:href="#DejaVuSans-69" x="527.888672"/>
       <use xlink:href="#DejaVuSans-6e" x="555.671875"/>
      </g>
     </g>
    </g>
    <g id="xtick_5">
     <g id="line2d_5">
      <g>
       <use xlink:href="#m37bf96eb6e" x="411.906919" y="317.72" style="stroke: #000000; stroke-width: 0.8"/>
      </g>
     </g>
     <g id="text_5">
      <!-- all -->
      <g transform="translate(406.064732 332.318437) scale(0.1 -0.1)">
       <defs>
        <path id="DejaVuSans-6c" d="M 603 4863 
L 1178 4863 
L 1178 0 
L 603 0 
L 603 4863 
z
" transform="scale(0.015625)"/>
       </defs>
       <use xlink:href="#DejaVuSans-61"/>
       <use xlink:href="#DejaVuSans-6c" x="61.279297"/>
       <use xlink:href="#DejaVuSans-6c" x="89.0625"/>
      </g>
     </g>
    </g>
   </g>
   <g id="matplotlib.axis_2">
    <g id="ytick_1">
     <g id="line2d_6">
      <defs>
       <path id="m7b0c4f9661" d="M 0 0 
L -3.5 0 
" style="stroke: #000000; stroke-width: 0.8"/>
      </defs>
      <g>
       <use xlink:href="#m7b0c4f9661" x="53.03" y="317.72" style="stroke: #000000; stroke-width: 0.8"/>
      </g>
     </g>
     <g id="text_6">
      <!-- −25 -->
      <g transform="translate(24.925313 321.519219) scale(0.1 -0.1)">
       <defs>
        <path id="DejaVuSans-2212" d="M 678 2272 
L 4684 2272 
L 4684 1741 
L 678 1741 
L 678 2272 
z
" transform="scale(0.015625)"/>
        <path id="DejaVuSans-35" d="M 691 4666 
L 3169 4666 
L 3169 4134 
L 1269 4134 
L 1269 2991 
Q 1406 3038 1543 3061 
Q 1681 3084 1819 3084 
Q 2600 3084 3056 2656 
Q 3513 2228 3513 1497 
Q 3513 744 3044 326 
Q 2575 -91 1722 -91 
Q 1428 -91 1123 -41 
Q 819 9 494 109 
L 494 744 
Q 775 591 1075 516 
Q 1375 441 1709 441 
Q 2250 441 2565 725 
Q 2881 1009 2881 1497 
Q 2881 1984 2565 2268 
Q 2250 2553 1709 2553 
Q 1456 2553 1204 2497 
Q 953 2441 691 2322 
L 691 4666 
z
" transform="scale(0.015625)"/>
       </defs>
       <use xlink:href="#DejaVuSans-2212"/>
       <use xlink:href="#DejaVuSans-32" x="83.789062"/>
       <use xlink:href="#DejaVuSans-35" x="147.412109"/>
      </g>
     </g>
    </g>
    <g id="ytick_2">
     <g id="line2d_7">
      <g>
       <use xlink:href="#m7b0c4f9661" x="53.03" y="271.21697" style="stroke: #000000; stroke-width: 0.8"/>
      </g>
     </g>
     <g id="text_7">
      <!-- −20 -->
      <g transform="translate(24.925313 275.016188) scale(0.1 -0.1)">
       <defs>
        <path id="DejaVuSans-30" d="M 2034 4250 
Q 1547 4250 1301 3770 
Q 1056 3291 1056 2328 
Q 1056 1369 1301 889 
Q 1547 409 2034 409 
Q 2525 409 2770 889 
Q 3016 1369 3016 2328 
Q 3016 3291 2770 3770 
Q 2525 4250 2034 4250 
z
M 2034 4750 
Q 2819 4750 3233 4129 
Q 3647 3509 3647 2328 
Q 3647 1150 3233 529 
Q 2819 -91 2034 -91 
Q 1250 -91 836 529 
Q 422 1150 422 2328 
Q 422 3509 836 4129 
Q 1250 4750 2034 4750 
z
" transform="scale(0.015625)"/>
       </defs>
       <use xlink:href="#DejaVuSans-2212"/>
       <use xlink:href="#DejaVuSans-32" x="83.789062"/>
       <use xlink:href="#DejaVuSans-30" x="147.412109"/>
      </g>
     </g>
    </g>
    <g id="ytick_3">
     <g id="line2d_8">
      <g>
       <use xlink:href="#m7b0c4f9661" x="53.03" y="224.713939" style="stroke: #000000; stroke-width: 0.8"/>
      </g>
     </g>
     <g id="text_8">
      <!-- −15 -->
      <g transform="translate(24.925313 228.513158) scale(0.1 -0.1)">
       <use xlink:href="#DejaVuSans-2212"/>
       <use xlink:href="#DejaVuSans-31" x="83.789062"/>
       <use xlink:href="#DejaVuSans-35" x="147.412109"/>
      </g>
     </g>
    </g>
    <g id="ytick_4">
     <g id="line2d_9">
      <g>
       <use xlink:href="#m7b0c4f9661" x="53.03" y="178.210909" style="stroke: #000000; stroke-width: 0.8"/>
      </g>
     </g>
     <g id="text_9">
      <!-- −10 -->
      <g transform="translate(24.925313 182.010128) scale(0.1 -0.1)">
       <use xlink:href="#DejaVuSans-2212"/>
       <use xlink:href="#DejaVuSans-31" x="83.789062"/>
       <use xlink:href="#DejaVuSans-30" x="147.412109"/>
      </g>
     </g>
    </g>
    <g id="ytick_5">
     <g id="line2d_10">
      <g>
       <use xlink:href="#m7b0c4f9661" x="53.03" y="131.707879" style="stroke: #000000; stroke-width: 0.8"/>
      </g>
     </g>
     <g id="text_10">
      <!-- −5 -->
      <g transform="translate(31.287813 135.507098) scale(0.1 -0.1)">
       <use xlink:href="#DejaVuSans-2212"/>
       <use xlink:href="#DejaVuSans-35" x="83.789062"/>
      </g>
     </g>
    </g>
    <g id="ytick_6">
     <g id="line2d_11">
      <g>
       <use xlink:href="#m7b0c4f9661" x="53.03" y="85.204848" style="stroke: #000000; stroke-width: 0.8"/>
      </g>
     </g>
     <g id="text_11">
      <!-- 0 -->
      <g transform="translate(39.6675 89.004067) scale(0.1 -0.1)">
       <use xlink:href="#DejaVuSans-30"/>
      </g>
     </g>
    </g>
    <g id="ytick_7">
     <g id="line2d_12">
      <g>
       <use xlink:href="#m7b0c4f9661" x="53.03" y="38.701818" style="stroke: #000000; stroke-width: 0.8"/>
      </g>
     </g>
     <g id="text_12">
      <!-- 5 -->
      <g transform="translate(39.6675 42.501037) scale(0.1 -0.1)">
       <use xlink:href="#DejaVuSans-35"/>
      </g>
     </g>
    </g>
    <g id="text_13">
     <!-- lg(ESM-1v score) -->
     <g transform="translate(18.845625 206.338906) rotate(-90) scale(0.1 -0.1)">
      <defs>
       <path id="DejaVuSans-67" d="M 2906 1791 
Q 2906 2416 2648 2759 
Q 2391 3103 1925 3103 
Q 1463 3103 1205 2759 
Q 947 2416 947 1791 
Q 947 1169 1205 825 
Q 1463 481 1925 481 
Q 2391 481 2648 825 
Q 2906 1169 2906 1791 
z
M 3481 434 
Q 3481 -459 3084 -895 
Q 2688 -1331 1869 -1331 
Q 1566 -1331 1297 -1286 
Q 1028 -1241 775 -1147 
L 775 -588 
Q 1028 -725 1275 -790 
Q 1522 -856 1778 -856 
Q 2344 -856 2625 -561 
Q 2906 -266 2906 331 
L 2906 616 
Q 2728 306 2450 153 
Q 2172 0 1784 0 
Q 1141 0 747 490 
Q 353 981 353 1791 
Q 353 2603 747 3093 
Q 1141 3584 1784 3584 
Q 2172 3584 2450 3431 
Q 2728 3278 2906 2969 
L 2906 3500 
L 3481 3500 
L 3481 434 
z
" transform="scale(0.015625)"/>
       <path id="DejaVuSans-28" d="M 1984 4856 
Q 1566 4138 1362 3434 
Q 1159 2731 1159 2009 
Q 1159 1288 1364 580 
Q 1569 -128 1984 -844 
L 1484 -844 
Q 1016 -109 783 600 
Q 550 1309 550 2009 
Q 550 2706 781 3412 
Q 1013 4119 1484 4856 
L 1984 4856 
z
" transform="scale(0.015625)"/>
       <path id="DejaVuSans-45" d="M 628 4666 
L 3578 4666 
L 3578 4134 
L 1259 4134 
L 1259 2753 
L 3481 2753 
L 3481 2222 
L 1259 2222 
L 1259 531 
L 3634 531 
L 3634 0 
L 628 0 
L 628 4666 
z
" transform="scale(0.015625)"/>
       <path id="DejaVuSans-53" d="M 3425 4513 
L 3425 3897 
Q 3066 4069 2747 4153 
Q 2428 4238 2131 4238 
Q 1616 4238 1336 4038 
Q 1056 3838 1056 3469 
Q 1056 3159 1242 3001 
Q 1428 2844 1947 2747 
L 2328 2669 
Q 3034 2534 3370 2195 
Q 3706 1856 3706 1288 
Q 3706 609 3251 259 
Q 2797 -91 1919 -91 
Q 1588 -91 1214 -16 
Q 841 59 441 206 
L 441 856 
Q 825 641 1194 531 
Q 1563 422 1919 422 
Q 2459 422 2753 634 
Q 3047 847 3047 1241 
Q 3047 1584 2836 1778 
Q 2625 1972 2144 2069 
L 1759 2144 
Q 1053 2284 737 2584 
Q 422 2884 422 3419 
Q 422 4038 858 4394 
Q 1294 4750 2059 4750 
Q 2388 4750 2728 4690 
Q 3069 4631 3425 4513 
z
" transform="scale(0.015625)"/>
       <path id="DejaVuSans-4d" d="M 628 4666 
L 1569 4666 
L 2759 1491 
L 3956 4666 
L 4897 4666 
L 4897 0 
L 4281 0 
L 4281 4097 
L 3078 897 
L 2444 897 
L 1241 4097 
L 1241 0 
L 628 0 
L 628 4666 
z
" transform="scale(0.015625)"/>
       <path id="DejaVuSans-2d" d="M 313 2009 
L 1997 2009 
L 1997 1497 
L 313 1497 
L 313 2009 
z
" transform="scale(0.015625)"/>
       <path id="DejaVuSans-76" d="M 191 3500 
L 800 3500 
L 1894 563 
L 2988 3500 
L 3597 3500 
L 2284 0 
L 1503 0 
L 191 3500 
z
" transform="scale(0.015625)"/>
       <path id="DejaVuSans-73" d="M 2834 3397 
L 2834 2853 
Q 2591 2978 2328 3040 
Q 2066 3103 1784 3103 
Q 1356 3103 1142 2972 
Q 928 2841 928 2578 
Q 928 2378 1081 2264 
Q 1234 2150 1697 2047 
L 1894 2003 
Q 2506 1872 2764 1633 
Q 3022 1394 3022 966 
Q 3022 478 2636 193 
Q 2250 -91 1575 -91 
Q 1294 -91 989 -36 
Q 684 19 347 128 
L 347 722 
Q 666 556 975 473 
Q 1284 391 1588 391 
Q 1994 391 2212 530 
Q 2431 669 2431 922 
Q 2431 1156 2273 1281 
Q 2116 1406 1581 1522 
L 1381 1569 
Q 847 1681 609 1914 
Q 372 2147 372 2553 
Q 372 3047 722 3315 
Q 1072 3584 1716 3584 
Q 2034 3584 2315 3537 
Q 2597 3491 2834 3397 
z
" transform="scale(0.015625)"/>
       <path id="DejaVuSans-63" d="M 3122 3366 
L 3122 2828 
Q 2878 2963 2633 3030 
Q 2388 3097 2138 3097 
Q 1578 3097 1268 2742 
Q 959 2388 959 1747 
Q 959 1106 1268 751 
Q 1578 397 2138 397 
Q 2388 397 2633 464 
Q 2878 531 3122 666 
L 3122 134 
Q 2881 22 2623 -34 
Q 2366 -91 2075 -91 
Q 1284 -91 818 406 
Q 353 903 353 1747 
Q 353 2603 823 3093 
Q 1294 3584 2113 3584 
Q 2378 3584 2631 3529 
Q 2884 3475 3122 3366 
z
" transform="scale(0.015625)"/>
       <path id="DejaVuSans-72" d="M 2631 2963 
Q 2534 3019 2420 3045 
Q 2306 3072 2169 3072 
Q 1681 3072 1420 2755 
Q 1159 2438 1159 1844 
L 1159 0 
L 581 0 
L 581 3500 
L 1159 3500 
L 1159 2956 
Q 1341 3275 1631 3429 
Q 1922 3584 2338 3584 
Q 2397 3584 2469 3576 
Q 2541 3569 2628 3553 
L 2631 2963 
z
" transform="scale(0.015625)"/>
       <path id="DejaVuSans-65" d="M 3597 1894 
L 3597 1613 
L 953 1613 
Q 991 1019 1311 708 
Q 1631 397 2203 397 
Q 2534 397 2845 478 
Q 3156 559 3463 722 
L 3463 178 
Q 3153 47 2828 -22 
Q 2503 -91 2169 -91 
Q 1331 -91 842 396 
Q 353 884 353 1716 
Q 353 2575 817 3079 
Q 1281 3584 2069 3584 
Q 2775 3584 3186 3129 
Q 3597 2675 3597 1894 
z
M 3022 2063 
Q 3016 2534 2758 2815 
Q 2500 3097 2075 3097 
Q 1594 3097 1305 2825 
Q 1016 2553 972 2059 
L 3022 2063 
z
" transform="scale(0.015625)"/>
       <path id="DejaVuSans-29" d="M 513 4856 
L 1013 4856 
Q 1481 4119 1714 3412 
Q 1947 2706 1947 2009 
Q 1947 1309 1714 600 
Q 1481 -109 1013 -844 
L 513 -844 
Q 928 -128 1133 580 
Q 1338 1288 1338 2009 
Q 1338 2731 1133 3434 
Q 928 4138 513 4856 
z
" transform="scale(0.015625)"/>
      </defs>
      <use xlink:href="#DejaVuSans-6c"/>
      <use xlink:href="#DejaVuSans-67" x="27.783203"/>
      <use xlink:href="#DejaVuSans-28" x="91.259766"/>
      <use xlink:href="#DejaVuSans-45" x="130.273438"/>
      <use xlink:href="#DejaVuSans-53" x="193.457031"/>
      <use xlink:href="#DejaVuSans-4d" x="256.933594"/>
      <use xlink:href="#DejaVuSans-2d" x="343.212891"/>
      <use xlink:href="#DejaVuSans-31" x="379.296875"/>
      <use xlink:href="#DejaVuSans-76" x="442.919922"/>
      <use xlink:href="#DejaVuSans-20" x="502.099609"/>
      <use xlink:href="#DejaVuSans-73" x="533.886719"/>
      <use xlink:href="#DejaVuSans-63" x="585.986328"/>
      <use xlink:href="#DejaVuSans-6f" x="640.966797"/>
      <use xlink:href="#DejaVuSans-72" x="702.148438"/>
      <use xlink:href="#DejaVuSans-65" x="741.011719"/>
      <use xlink:href="#DejaVuSans-29" x="802.535156"/>
     </g>
    </g>
   </g>
   <g id="LineCollection_1">
    <path d="M 91.123081 75.904242 
L 411.906919 75.904242 
" clip-path="url(#p5e82f3fd90)" style="fill: none; stroke: #000000; stroke-width: 1.5"/>
   </g>
   <g id="LineCollection_2">
    <path d="M 171.31904 66.603636 
L 411.906919 66.603636 
" clip-path="url(#p5e82f3fd90)" style="fill: none; stroke: #000000; stroke-width: 1.5"/>
   </g>
   <g id="LineCollection_3">
    <path d="M 251.515 57.30303 
L 411.906919 57.30303 
" clip-path="url(#p5e82f3fd90)" style="fill: none; stroke: #000000; stroke-width: 1.5"/>
   </g>
   <g id="LineCollection_4">
    <path d="M 331.71096 48.002424 
L 411.906919 48.002424 
" clip-path="url(#p5e82f3fd90)" style="fill: none; stroke: #000000; stroke-width: 1.5"/>
   </g>
   <g id="patch_3">
    <path d="M 53.03 317.72 
L 53.03 10.8 
" style="fill: none; stroke: #000000; stroke-width: 0.8; stroke-linejoin: miter; stroke-linecap: square"/>
   </g>
   <g id="patch_4">
    <path d="M 450 317.72 
L 450 10.8 
" style="fill: none; stroke: #000000; stroke-width: 0.8; stroke-linejoin: miter; stroke-linecap: square"/>
   </g>
   <g id="patch_5">
    <path d="M 53.03 317.72 
L 450 317.72 
" style="fill: none; stroke: #000000; stroke-width: 0.8; stroke-linejoin: miter; stroke-linecap: square"/>
   </g>
   <g id="patch_6">
    <path d="M 53.03 10.8 
L 450 10.8 
" style="fill: none; stroke: #000000; stroke-width: 0.8; stroke-linejoin: miter; stroke-linecap: square"/>
   </g>
   <g id="text_14">
    <!-- 1.7E-182 -->
    <g transform="translate(68.664487 69.363011) scale(0.1 -0.1)">
     <defs>
      <path id="DejaVuSans-2e" d="M 684 794 
L 1344 794 
L 1344 0 
L 684 0 
L 684 794 
z
" transform="scale(0.015625)"/>
      <path id="DejaVuSans-37" d="M 525 4666 
L 3525 4666 
L 3525 4397 
L 1831 0 
L 1172 0 
L 2766 4134 
L 525 4134 
L 525 4666 
z
" transform="scale(0.015625)"/>
      <path id="DejaVuSans-38" d="M 2034 2216 
Q 1584 2216 1326 1975 
Q 1069 1734 1069 1313 
Q 1069 891 1326 650 
Q 1584 409 2034 409 
Q 2484 409 2743 651 
Q 3003 894 3003 1313 
Q 3003 1734 2745 1975 
Q 2488 2216 2034 2216 
z
M 1403 2484 
Q 997 2584 770 2862 
Q 544 3141 544 3541 
Q 544 4100 942 4425 
Q 1341 4750 2034 4750 
Q 2731 4750 3128 4425 
Q 3525 4100 3525 3541 
Q 3525 3141 3298 2862 
Q 3072 2584 2669 2484 
Q 3125 2378 3379 2068 
Q 3634 1759 3634 1313 
Q 3634 634 3220 271 
Q 2806 -91 2034 -91 
Q 1263 -91 848 271 
Q 434 634 434 1313 
Q 434 1759 690 2068 
Q 947 2378 1403 2484 
z
M 1172 3481 
Q 1172 3119 1398 2916 
Q 1625 2713 2034 2713 
Q 2441 2713 2670 2916 
Q 2900 3119 2900 3481 
Q 2900 3844 2670 4047 
Q 2441 4250 2034 4250 
Q 1625 4250 1398 4047 
Q 1172 3844 1172 3481 
z
" transform="scale(0.015625)"/>
     </defs>
     <use xlink:href="#DejaVuSans-31"/>
     <use xlink:href="#DejaVuSans-2e" x="63.623047"/>
     <use xlink:href="#DejaVuSans-37" x="95.410156"/>
     <use xlink:href="#DejaVuSans-45" x="159.033203"/>
     <use xlink:href="#DejaVuSans-2d" x="222.216797"/>
     <use xlink:href="#DejaVuSans-31" x="258.300781"/>
     <use xlink:href="#DejaVuSans-38" x="321.923828"/>
     <use xlink:href="#DejaVuSans-32" x="385.546875"/>
    </g>
   </g>
   <g id="text_15">
    <!-- 3.3E-19 -->
    <g transform="translate(152.041697 60.062405) scale(0.1 -0.1)">
     <defs>
      <path id="DejaVuSans-33" d="M 2597 2516 
Q 3050 2419 3304 2112 
Q 3559 1806 3559 1356 
Q 3559 666 3084 287 
Q 2609 -91 1734 -91 
Q 1441 -91 1130 -33 
Q 819 25 488 141 
L 488 750 
Q 750 597 1062 519 
Q 1375 441 1716 441 
Q 2309 441 2620 675 
Q 2931 909 2931 1356 
Q 2931 1769 2642 2001 
Q 2353 2234 1838 2234 
L 1294 2234 
L 1294 2753 
L 1863 2753 
Q 2328 2753 2575 2939 
Q 2822 3125 2822 3475 
Q 2822 3834 2567 4026 
Q 2313 4219 1838 4219 
Q 1578 4219 1281 4162 
Q 984 4106 628 3988 
L 628 4550 
Q 988 4650 1302 4700 
Q 1616 4750 1894 4750 
Q 2613 4750 3031 4423 
Q 3450 4097 3450 3541 
Q 3450 3153 3228 2886 
Q 3006 2619 2597 2516 
z
" transform="scale(0.015625)"/>
      <path id="DejaVuSans-39" d="M 703 97 
L 703 672 
Q 941 559 1184 500 
Q 1428 441 1663 441 
Q 2288 441 2617 861 
Q 2947 1281 2994 2138 
Q 2813 1869 2534 1725 
Q 2256 1581 1919 1581 
Q 1219 1581 811 2004 
Q 403 2428 403 3163 
Q 403 3881 828 4315 
Q 1253 4750 1959 4750 
Q 2769 4750 3195 4129 
Q 3622 3509 3622 2328 
Q 3622 1225 3098 567 
Q 2575 -91 1691 -91 
Q 1453 -91 1209 -44 
Q 966 3 703 97 
z
M 1959 2075 
Q 2384 2075 2632 2365 
Q 2881 2656 2881 3163 
Q 2881 3666 2632 3958 
Q 2384 4250 1959 4250 
Q 1534 4250 1286 3958 
Q 1038 3666 1038 3163 
Q 1038 2656 1286 2365 
Q 1534 2075 1959 2075 
z
" transform="scale(0.015625)"/>
     </defs>
     <use xlink:href="#DejaVuSans-33"/>
     <use xlink:href="#DejaVuSans-2e" x="63.623047"/>
     <use xlink:href="#DejaVuSans-33" x="95.410156"/>
     <use xlink:href="#DejaVuSans-45" x="159.033203"/>
     <use xlink:href="#DejaVuSans-2d" x="222.216797"/>
     <use xlink:href="#DejaVuSans-31" x="258.300781"/>
     <use xlink:href="#DejaVuSans-39" x="321.923828"/>
    </g>
   </g>
   <g id="text_16">
    <!-- 1.6E-15 -->
    <g transform="translate(232.237656 50.761799) scale(0.1 -0.1)">
     <defs>
      <path id="DejaVuSans-36" d="M 2113 2584 
Q 1688 2584 1439 2293 
Q 1191 2003 1191 1497 
Q 1191 994 1439 701 
Q 1688 409 2113 409 
Q 2538 409 2786 701 
Q 3034 994 3034 1497 
Q 3034 2003 2786 2293 
Q 2538 2584 2113 2584 
z
M 3366 4563 
L 3366 3988 
Q 3128 4100 2886 4159 
Q 2644 4219 2406 4219 
Q 1781 4219 1451 3797 
Q 1122 3375 1075 2522 
Q 1259 2794 1537 2939 
Q 1816 3084 2150 3084 
Q 2853 3084 3261 2657 
Q 3669 2231 3669 1497 
Q 3669 778 3244 343 
Q 2819 -91 2113 -91 
Q 1303 -91 875 529 
Q 447 1150 447 2328 
Q 447 3434 972 4092 
Q 1497 4750 2381 4750 
Q 2619 4750 2861 4703 
Q 3103 4656 3366 4563 
z
" transform="scale(0.015625)"/>
     </defs>
     <use xlink:href="#DejaVuSans-31"/>
     <use xlink:href="#DejaVuSans-2e" x="63.623047"/>
     <use xlink:href="#DejaVuSans-36" x="95.410156"/>
     <use xlink:href="#DejaVuSans-45" x="159.033203"/>
     <use xlink:href="#DejaVuSans-2d" x="222.216797"/>
     <use xlink:href="#DejaVuSans-31" x="258.300781"/>
     <use xlink:href="#DejaVuSans-35" x="321.923828"/>
    </g>
   </g>
   <g id="text_17">
    <!-- 0.0E+00 -->
    <g transform="translate(310.047678 41.461193) scale(0.1 -0.1)">
     <defs>
      <path id="DejaVuSans-2b" d="M 2944 4013 
L 2944 2272 
L 4684 2272 
L 4684 1741 
L 2944 1741 
L 2944 0 
L 2419 0 
L 2419 1741 
L 678 1741 
L 678 2272 
L 2419 2272 
L 2419 4013 
L 2944 4013 
z
" transform="scale(0.015625)"/>
     </defs>
     <use xlink:href="#DejaVuSans-30"/>
     <use xlink:href="#DejaVuSans-2e" x="63.623047"/>
     <use xlink:href="#DejaVuSans-30" x="95.410156"/>
     <use xlink:href="#DejaVuSans-45" x="159.033203"/>
     <use xlink:href="#DejaVuSans-2b" x="222.216797"/>
     <use xlink:href="#DejaVuSans-30" x="306.005859"/>
     <use xlink:href="#DejaVuSans-30" x="369.628906"/>
    </g>
   </g>
  </g>
 </g>
 <defs>
  <clipPath id="p5e82f3fd90">
   <rect x="53.03" y="10.8" width="396.97" height="306.92"/>
  </clipPath>
 </defs>
</svg>
