<?xml version="1.0" encoding="utf-8" standalone="no"?>
<!DOCTYPE svg PUBLIC "-//W3C//DTD SVG 1.1//EN"
  "http://www.w3.org/Graphics/SVG/1.1/DTD/svg11.dtd">
<svg xmlns:xlink="http://www.w3.org/1999/xlink" width="460.8pt" height="345.6pt" viewBox="0 0 460.8 345.6" xmlns="http://www.w3.org/2000/svg" version="1.1">
 <metadata>
  <rdf:RDF xmlns:dc="http://purl.org/dc/elements/1.1/" xmlns:cc="http://creativecommons.org/ns#" xmlns:rdf="http://www.w3.org/1999/02/22-rdf-syntax-ns#">
   <cc:Work>
    <dc:type rdf:resource="http://purl.org/dc/dcmitype/StillImage"/>
    <dc:date>2024-01-15T11:18:44.377845</dc:date>
    <dc:format>image/svg+xml</dc:format>
    <dc:creator>
     <cc:Agent>
      <dc:title>Matplotlib v3.8.1, https://matplotlib.org/</dc:title>
     </cc:Agent>
    </dc:creator>
   </cc:Work>
  </rdf:RDF>
 </metadata>
 <defs>
  <style type="text/css">*{stroke-linejoin: round; stroke-linecap: butt}</style>
 </defs>
 <g id="figure_1">
  <g id="patch_1">
   <path d="M 0 345.6 
L 460.8 345.6 
L 460.8 0 
L 0 0 
z
" style="fill: #ffffff"/>
  </g>
  <g id="axes_1">
   <g id="patch_2">
    <path d="M 44.66 317.72 
L 450 317.72 
L 450 10.8 
L 44.66 10.8 
z
" style="fill: #ffffff"/>
   </g>
   <g id="PolyCollection_1">
    <defs>
     <path id="md6ea284ea2" d="M 126.515649 -101.478376 
L 122.483745 -101.478376 
L 122.448173 -103.362248 
L 122.425348 -105.246119 
L 122.408954 -107.129991 
L 122.390735 -109.013863 
L 122.360706 -110.897735 
L 122.307454 -112.781607 
L 122.218488 -114.665479 
L 122.080627 -116.549351 
L 121.880386 -118.433223 
L 121.604359 -120.317095 
L 121.239571 -122.200967 
L 120.773806 -124.084839 
L 120.195905 -125.96871 
L 119.496042 -127.852582 
L 118.66598 -129.736454 
L 117.699298 -131.620326 
L 116.591601 -133.504198 
L 115.340673 -135.38807 
L 113.946593 -137.271942 
L 112.411765 -139.155814 
L 110.74087 -141.039686 
L 108.940736 -142.923558 
L 107.020126 -144.80743 
L 104.98946 -146.691301 
L 102.860518 -148.575173 
L 100.646134 -150.459045 
L 98.359937 -152.342917 
L 96.016156 -154.226789 
L 93.629507 -156.110661 
L 91.215174 -157.994533 
L 88.788859 -159.878405 
L 86.366874 -161.762277 
L 83.966258 -163.646149 
L 81.604856 -165.530021 
L 79.301345 -167.413893 
L 77.075166 -169.297764 
L 74.946364 -171.181636 
L 72.93531 -173.065508 
L 71.062333 -174.94938 
L 69.347266 -176.833252 
L 67.808925 -178.717124 
L 66.464572 -180.600996 
L 65.329366 -182.484868 
L 64.415869 -184.36874 
L 63.733632 -186.252612 
L 63.288908 -188.136484 
L 63.084545 -190.020355 
L 63.120057 -191.904227 
L 63.391909 -193.788099 
L 63.893987 -195.671971 
L 64.618209 -197.555843 
L 65.555204 -199.439715 
L 66.694975 -201.323587 
L 68.027434 -203.207459 
L 69.54273 -205.091331 
L 71.2313 -206.975203 
L 73.083596 -208.859075 
L 75.089541 -210.742947 
L 77.237741 -212.626818 
L 79.514595 -214.51069 
L 81.903422 -216.394562 
L 84.383757 -218.278434 
L 86.930959 -220.162306 
L 89.516224 -222.046178 
L 92.107078 -223.93005 
L 94.66832 -225.813922 
L 97.163393 -227.697794 
L 99.556042 -229.581666 
L 101.812128 -231.465538 
L 103.901425 -233.349409 
L 105.799231 -235.233281 
L 107.487642 -237.117153 
L 108.956378 -239.001025 
L 110.20309 -240.884897 
L 111.233134 -242.768769 
L 112.058847 -244.652641 
L 112.698407 -246.536513 
L 113.174395 -248.420385 
L 113.512196 -250.304257 
L 113.738379 -252.188129 
L 113.879199 -254.072 
L 113.959321 -255.955872 
L 114.000863 -257.839744 
L 114.022789 -259.723616 
L 114.040651 -261.607488 
L 114.066665 -263.49136 
L 114.110039 -265.375232 
L 114.177475 -267.259104 
L 114.273755 -269.142976 
L 114.402318 -271.026848 
L 114.565748 -272.91072 
L 114.766121 -274.794592 
L 115.005183 -276.678463 
L 115.284349 -278.562335 
L 115.604562 -280.446207 
L 115.966044 -282.330079 
L 116.368007 -284.213951 
L 116.808383 -286.097823 
L 117.283627 -287.981695 
L 131.715767 -287.981695 
L 131.715767 -287.981695 
L 132.191011 -286.097823 
L 132.631387 -284.213951 
L 133.03335 -282.330079 
L 133.394832 -280.446207 
L 133.715044 -278.562335 
L 133.994211 -276.678463 
L 134.233272 -274.794592 
L 134.433646 -272.91072 
L 134.597076 -271.026848 
L 134.725638 -269.142976 
L 134.821919 -267.259104 
L 134.889354 -265.375232 
L 134.932729 -263.49136 
L 134.958743 -261.607488 
L 134.976605 -259.723616 
L 134.998531 -257.839744 
L 135.040073 -255.955872 
L 135.120195 -254.072 
L 135.261015 -252.188129 
L 135.487198 -250.304257 
L 135.824999 -248.420385 
L 136.300987 -246.536513 
L 136.940547 -244.652641 
L 137.76626 -242.768769 
L 138.796304 -240.884897 
L 140.043016 -239.001025 
L 141.511752 -237.117153 
L 143.200163 -235.233281 
L 145.097969 -233.349409 
L 147.187266 -231.465538 
L 149.443352 -229.581666 
L 151.836001 -227.697794 
L 154.331074 -225.813922 
L 156.892316 -223.93005 
L 159.48317 -222.046178 
L 162.068435 -220.162306 
L 164.615637 -218.278434 
L 167.095972 -216.394562 
L 169.484799 -214.51069 
L 171.761653 -212.626818 
L 173.909853 -210.742947 
L 175.915798 -208.859075 
L 177.768094 -206.975203 
L 179.456663 -205.091331 
L 180.97196 -203.207459 
L 182.304419 -201.323587 
L 183.44419 -199.439715 
L 184.381185 -197.555843 
L 185.105407 -195.671971 
L 185.607485 -193.788099 
L 185.879337 -191.904227 
L 185.914848 -190.020355 
L 185.710485 -188.136484 
L 185.265762 -186.252612 
L 184.583525 -184.36874 
L 183.670028 -182.484868 
L 182.534822 -180.600996 
L 181.190469 -178.717124 
L 179.652128 -176.833252 
L 177.937061 -174.94938 
L 176.064084 -173.065508 
L 174.05303 -171.181636 
L 171.924228 -169.297764 
L 169.698049 -167.413893 
L 167.394538 -165.530021 
L 165.033136 -163.646149 
L 162.63252 -161.762277 
L 160.210535 -159.878405 
L 157.78422 -157.994533 
L 155.369887 -156.110661 
L 152.983238 -154.226789 
L 150.639457 -152.342917 
L 148.35326 -150.459045 
L 146.138876 -148.575173 
L 144.009934 -146.691301 
L 141.979268 -144.80743 
L 140.058658 -142.923558 
L 138.258524 -141.039686 
L 136.587629 -139.155814 
L 135.0528 -137.271942 
L 133.658721 -135.38807 
L 132.407793 -133.504198 
L 131.300096 -131.620326 
L 130.333414 -129.736454 
L 129.503352 -127.852582 
L 128.803489 -125.96871 
L 128.225588 -124.084839 
L 127.759823 -122.200967 
L 127.395035 -120.317095 
L 127.119008 -118.433223 
L 126.918767 -116.549351 
L 126.780906 -114.665479 
L 126.69194 -112.781607 
L 126.638688 -110.897735 
L 126.608659 -109.013863 
L 126.59044 -107.129991 
L 126.574046 -105.246119 
L 126.551221 -103.362248 
L 126.515649 -101.478376 
z
" style="stroke: #000000"/>
    </defs>
    <g clip-path="url(#pa47ede7062)">
     <use xlink:href="#md6ea284ea2" x="0" y="345.6" style="fill: #808080; stroke: #000000"/>
    </g>
   </g>
   <g id="PolyCollection_2">
    <defs>
     <path id="m600747c940" d="M 377.688315 -53.973402 
L 362.632291 -53.973402 
L 361.797439 -56.337122 
L 360.910603 -58.700842 
L 359.969754 -61.064562 
L 358.974362 -63.428283 
L 357.926212 -65.792003 
L 356.830051 -68.155723 
L 355.693956 -70.519443 
L 354.529311 -72.883163 
L 353.350352 -75.246883 
L 352.173296 -77.610603 
L 351.015135 -79.974323 
L 349.892227 -82.338044 
L 348.818852 -84.701764 
L 347.805922 -87.065484 
L 346.860002 -89.429204 
L 345.982776 -91.792924 
L 345.171016 -94.156644 
L 344.417046 -96.520364 
L 343.709641 -98.884085 
L 343.035205 -101.247805 
L 342.379081 -103.611525 
L 341.726813 -105.975245 
L 341.065188 -108.338965 
L 340.38295 -110.702685 
L 339.671124 -113.066405 
L 338.922937 -115.430125 
L 338.133416 -117.793846 
L 337.298741 -120.157566 
L 336.415519 -122.521286 
L 335.480095 -124.885006 
L 334.488044 -127.248726 
L 333.433934 -129.612446 
L 332.311439 -131.976166 
L 331.113798 -134.339886 
L 329.83461 -136.703607 
L 328.468907 -139.067327 
L 327.0144 -141.431047 
L 325.472798 -143.794767 
L 323.851048 -146.158487 
L 322.162386 -148.522207 
L 320.42704 -150.885927 
L 318.672464 -153.249647 
L 316.933029 -155.613368 
L 315.249083 -157.977088 
L 313.665411 -160.340808 
L 312.229143 -162.704528 
L 310.987238 -165.068248 
L 309.983745 -167.431968 
L 309.257069 -169.795688 
L 308.837486 -172.159409 
L 308.745152 -174.523129 
L 308.988813 -176.886849 
L 309.565334 -179.250569 
L 310.460106 -181.614289 
L 311.648283 -183.978009 
L 313.09674 -186.341729 
L 314.766534 -188.705449 
L 316.615655 -191.06917 
L 318.601793 -193.43289 
L 320.684876 -195.79661 
L 322.829166 -198.16033 
L 325.004747 -200.52405 
L 327.188297 -202.88777 
L 329.36314 -205.25149 
L 331.518606 -207.61521 
L 333.648827 -209.978931 
L 335.751144 -212.342651 
L 337.824338 -214.706371 
L 339.866892 -217.070091 
L 341.875526 -219.433811 
L 343.844159 -221.797531 
L 345.763421 -224.161251 
L 347.620769 -226.524972 
L 349.401164 -228.888692 
L 351.088201 -231.252412 
L 352.665543 -233.616132 
L 354.118455 -235.979852 
L 355.435238 -238.343572 
L 356.608395 -240.707292 
L 357.635389 -243.071012 
L 358.518928 -245.434733 
L 359.266766 -247.798453 
L 359.891081 -250.162173 
L 360.407516 -252.525893 
L 360.834034 -254.889613 
L 361.189696 -257.253333 
L 361.493512 -259.617053 
L 361.763438 -261.980773 
L 362.01561 -264.344494 
L 362.263806 -266.708214 
L 362.519166 -269.071934 
L 362.790107 -271.435654 
L 363.082405 -273.799374 
L 363.399382 -276.163094 
L 363.742156 -278.526814 
L 364.10992 -280.890535 
L 364.500222 -283.254255 
L 364.909241 -285.617975 
L 365.332068 -287.981695 
L 374.988538 -287.981695 
L 374.988538 -287.981695 
L 375.411365 -285.617975 
L 375.820384 -283.254255 
L 376.210686 -280.890535 
L 376.57845 -278.526814 
L 376.921224 -276.163094 
L 377.238201 -273.799374 
L 377.530499 -271.435654 
L 377.80144 -269.071934 
L 378.0568 -266.708214 
L 378.304996 -264.344494 
L 378.557168 -261.980773 
L 378.827095 -259.617053 
L 379.13091 -257.253333 
L 379.486572 -254.889613 
L 379.91309 -252.525893 
L 380.429525 -250.162173 
L 381.05384 -247.798453 
L 381.801678 -245.434733 
L 382.685217 -243.071012 
L 383.712211 -240.707292 
L 384.885368 -238.343572 
L 386.202151 -235.979852 
L 387.655063 -233.616132 
L 389.232405 -231.252412 
L 390.919442 -228.888692 
L 392.699837 -226.524972 
L 394.557185 -224.161251 
L 396.476447 -221.797531 
L 398.44508 -219.433811 
L 400.453714 -217.070091 
L 402.496268 -214.706371 
L 404.569462 -212.342651 
L 406.67178 -209.978931 
L 408.802 -207.61521 
L 410.957466 -205.25149 
L 413.132309 -202.88777 
L 415.315859 -200.52405 
L 417.49144 -198.16033 
L 419.63573 -195.79661 
L 421.718813 -193.43289 
L 423.704951 -191.06917 
L 425.554072 -188.705449 
L 427.223866 -186.341729 
L 428.672323 -183.978009 
L 429.8605 -181.614289 
L 430.755272 -179.250569 
L 431.331793 -176.886849 
L 431.575455 -174.523129 
L 431.483121 -172.159409 
L 431.063537 -169.795688 
L 430.336861 -167.431968 
L 429.333369 -165.068248 
L 428.091463 -162.704528 
L 426.655195 -160.340808 
L 425.071523 -157.977088 
L 423.387577 -155.613368 
L 421.648142 -153.249647 
L 419.893566 -150.885927 
L 418.15822 -148.522207 
L 416.469558 -146.158487 
L 414.847808 -143.794767 
L 413.306206 -141.431047 
L 411.8517 -139.067327 
L 410.485996 -136.703607 
L 409.206808 -134.339886 
L 408.009167 -131.976166 
L 406.886672 -129.612446 
L 405.832562 -127.248726 
L 404.840511 -124.885006 
L 403.905087 -122.521286 
L 403.021865 -120.157566 
L 402.18719 -117.793846 
L 401.397669 -115.430125 
L 400.649482 -113.066405 
L 399.937656 -110.702685 
L 399.255418 -108.338965 
L 398.593793 -105.975245 
L 397.941525 -103.611525 
L 397.285401 -101.247805 
L 396.610965 -98.884085 
L 395.90356 -96.520364 
L 395.14959 -94.156644 
L 394.33783 -91.792924 
L 393.460604 -89.429204 
L 392.514684 -87.065484 
L 391.501754 -84.701764 
L 390.428379 -82.338044 
L 389.305471 -79.974323 
L 388.14731 -77.610603 
L 386.970254 -75.246883 
L 385.791295 -72.883163 
L 384.62665 -70.519443 
L 383.490555 -68.155723 
L 382.394394 -65.792003 
L 381.346244 -63.428283 
L 380.350852 -61.064562 
L 379.410003 -58.700842 
L 378.523167 -56.337122 
L 377.688315 -53.973402 
z
" style="stroke: #000000"/>
    </defs>
    <g clip-path="url(#pa47ede7062)">
     <use xlink:href="#m600747c940" x="0" y="345.6" style="fill: #808080; stroke: #000000"/>
    </g>
   </g>
   <g id="matplotlib.axis_1">
    <g id="xtick_1">
     <g id="line2d_1">
      <defs>
       <path id="m31f678c5f1" d="M 0 0 
L 0 3.5 
" style="stroke: #000000; stroke-width: 0.8"/>
      </defs>
      <g>
       <use xlink:href="#m31f678c5f1" x="124.499697" y="317.72" style="stroke: #000000; stroke-width: 0.8"/>
      </g>
     </g>
     <g id="text_1">
      <!-- BAG domain -->
      <g transform="translate(93.547353 332.318437) scale(0.1 -0.1)">
       <defs>
        <path id="DejaVuSans-42" d="M 1259 2228 
L 1259 519 
L 2272 519 
Q 2781 519 3026 730 
Q 3272 941 3272 1375 
Q 3272 1813 3026 2020 
Q 2781 2228 2272 2228 
L 1259 2228 
z
M 1259 4147 
L 1259 2741 
L 2194 2741 
Q 2656 2741 2882 2914 
Q 3109 3088 3109 3444 
Q 3109 3797 2882 3972 
Q 2656 4147 2194 4147 
L 1259 4147 
z
M 628 4666 
L 2241 4666 
Q 2963 4666 3353 4366 
Q 3744 4066 3744 3513 
Q 3744 3084 3544 2831 
Q 3344 2578 2956 2516 
Q 3422 2416 3680 2098 
Q 3938 1781 3938 1306 
Q 3938 681 3513 340 
Q 3088 0 2303 0 
L 628 0 
L 628 4666 
z
" transform="scale(0.015625)"/>
        <path id="DejaVuSans-41" d="M 2188 4044 
L 1331 1722 
L 3047 1722 
L 2188 4044 
z
M 1831 4666 
L 2547 4666 
L 4325 0 
L 3669 0 
L 3244 1197 
L 1141 1197 
L 716 0 
L 50 0 
L 1831 4666 
z
" transform="scale(0.015625)"/>
        <path id="DejaVuSans-47" d="M 3809 666 
L 3809 1919 
L 2778 1919 
L 2778 2438 
L 4434 2438 
L 4434 434 
Q 4069 175 3628 42 
Q 3188 -91 2688 -91 
Q 1594 -91 976 548 
Q 359 1188 359 2328 
Q 359 3472 976 4111 
Q 1594 4750 2688 4750 
Q 3144 4750 3555 4637 
Q 3966 4525 4313 4306 
L 4313 3634 
Q 3963 3931 3569 4081 
Q 3175 4231 2741 4231 
Q 1884 4231 1454 3753 
Q 1025 3275 1025 2328 
Q 1025 1384 1454 906 
Q 1884 428 2741 428 
Q 3075 428 3337 486 
Q 3600 544 3809 666 
z
" transform="scale(0.015625)"/>
        <path id="DejaVuSans-20" transform="scale(0.015625)"/>
        <path id="DejaVuSans-64" d="M 2906 2969 
L 2906 4863 
L 3481 4863 
L 3481 0 
L 2906 0 
L 2906 525 
Q 2725 213 2448 61 
Q 2172 -91 1784 -91 
Q 1150 -91 751 415 
Q 353 922 353 1747 
Q 353 2572 751 3078 
Q 1150 3584 1784 3584 
Q 2172 3584 2448 3432 
Q 2725 3281 2906 2969 
z
M 947 1747 
Q 947 1113 1208 752 
Q 1469 391 1925 391 
Q 2381 391 2643 752 
Q 2906 1113 2906 1747 
Q 2906 2381 2643 2742 
Q 2381 3103 1925 3103 
Q 1469 3103 1208 2742 
Q 947 2381 947 1747 
z
" transform="scale(0.015625)"/>
        <path id="DejaVuSans-6f" d="M 1959 3097 
Q 1497 3097 1228 2736 
Q 959 2375 959 1747 
Q 959 1119 1226 758 
Q 1494 397 1959 397 
Q 2419 397 2687 759 
Q 2956 1122 2956 1747 
Q 2956 2369 2687 2733 
Q 2419 3097 1959 3097 
z
M 1959 3584 
Q 2709 3584 3137 3096 
Q 3566 2609 3566 1747 
Q 3566 888 3137 398 
Q 2709 -91 1959 -91 
Q 1206 -91 779 398 
Q 353 888 353 1747 
Q 353 2609 779 3096 
Q 1206 3584 1959 3584 
z
" transform="scale(0.015625)"/>
        <path id="DejaVuSans-6d" d="M 3328 2828 
Q 3544 3216 3844 3400 
Q 4144 3584 4550 3584 
Q 5097 3584 5394 3201 
Q 5691 2819 5691 2113 
L 5691 0 
L 5113 0 
L 5113 2094 
Q 5113 2597 4934 2840 
Q 4756 3084 4391 3084 
Q 3944 3084 3684 2787 
Q 3425 2491 3425 1978 
L 3425 0 
L 2847 0 
L 2847 2094 
Q 2847 2600 2669 2842 
Q 2491 3084 2119 3084 
Q 1678 3084 1418 2786 
Q 1159 2488 1159 1978 
L 1159 0 
L 581 0 
L 581 3500 
L 1159 3500 
L 1159 2956 
Q 1356 3278 1631 3431 
Q 1906 3584 2284 3584 
Q 2666 3584 2933 3390 
Q 3200 3197 3328 2828 
z
" transform="scale(0.015625)"/>
        <path id="DejaVuSans-61" d="M 2194 1759 
Q 1497 1759 1228 1600 
Q 959 1441 959 1056 
Q 959 750 1161 570 
Q 1363 391 1709 391 
Q 2188 391 2477 730 
Q 2766 1069 2766 1631 
L 2766 1759 
L 2194 1759 
z
M 3341 1997 
L 3341 0 
L 2766 0 
L 2766 531 
Q 2569 213 2275 61 
Q 1981 -91 1556 -91 
Q 1019 -91 701 211 
Q 384 513 384 1019 
Q 384 1609 779 1909 
Q 1175 2209 1959 2209 
L 2766 2209 
L 2766 2266 
Q 2766 2663 2505 2880 
Q 2244 3097 1772 3097 
Q 1472 3097 1187 3025 
Q 903 2953 641 2809 
L 641 3341 
Q 956 3463 1253 3523 
Q 1550 3584 1831 3584 
Q 2591 3584 2966 3190 
Q 3341 2797 3341 1997 
z
" transform="scale(0.015625)"/>
        <path id="DejaVuSans-69" d="M 603 3500 
L 1178 3500 
L 1178 0 
L 603 0 
L 603 3500 
z
M 603 4863 
L 1178 4863 
L 1178 4134 
L 603 4134 
L 603 4863 
z
" transform="scale(0.015625)"/>
        <path id="DejaVuSans-6e" d="M 3513 2113 
L 3513 0 
L 2938 0 
L 2938 2094 
Q 2938 2591 2744 2837 
Q 2550 3084 2163 3084 
Q 1697 3084 1428 2787 
Q 1159 2491 1159 1978 
L 1159 0 
L 581 0 
L 581 3500 
L 1159 3500 
L 1159 2956 
Q 1366 3272 1645 3428 
Q 1925 3584 2291 3584 
Q 2894 3584 3203 3211 
Q 3513 2838 3513 2113 
z
" transform="scale(0.015625)"/>
       </defs>
       <use xlink:href="#DejaVuSans-42"/>
       <use xlink:href="#DejaVuSans-41" x="68.603516"/>
       <use xlink:href="#DejaVuSans-47" x="135.261719"/>
       <use xlink:href="#DejaVuSans-20" x="212.751953"/>
       <use xlink:href="#DejaVuSans-64" x="244.539062"/>
       <use xlink:href="#DejaVuSans-6f" x="308.015625"/>
       <use xlink:href="#DejaVuSans-6d" x="369.197266"/>
       <use xlink:href="#DejaVuSans-61" x="466.609375"/>
       <use xlink:href="#DejaVuSans-69" x="527.888672"/>
       <use xlink:href="#DejaVuSans-6e" x="555.671875"/>
      </g>
     </g>
    </g>
    <g id="xtick_2">
     <g id="line2d_2">
      <g>
       <use xlink:href="#m31f678c5f1" x="370.160303" y="317.72" style="stroke: #000000; stroke-width: 0.8"/>
      </g>
     </g>
     <g id="text_2">
      <!-- all -->
      <g transform="translate(364.318116 332.318437) scale(0.1 -0.1)">
       <defs>
        <path id="DejaVuSans-6c" d="M 603 4863 
L 1178 4863 
L 1178 0 
L 603 0 
L 603 4863 
z
" transform="scale(0.015625)"/>
       </defs>
       <use xlink:href="#DejaVuSans-61"/>
       <use xlink:href="#DejaVuSans-6c" x="61.279297"/>
       <use xlink:href="#DejaVuSans-6c" x="89.0625"/>
      </g>
     </g>
    </g>
   </g>
   <g id="matplotlib.axis_2">
    <g id="ytick_1">
     <g id="line2d_3">
      <defs>
       <path id="m61db8572a4" d="M 0 0 
L -3.5 0 
" style="stroke: #000000; stroke-width: 0.8"/>
      </defs>
      <g>
       <use xlink:href="#m61db8572a4" x="44.66" y="291.709831" style="stroke: #000000; stroke-width: 0.8"/>
      </g>
     </g>
     <g id="text_3">
      <!-- 0 -->
      <g transform="translate(31.2975 295.509049) scale(0.1 -0.1)">
       <defs>
        <path id="DejaVuSans-30" d="M 2034 4250 
Q 1547 4250 1301 3770 
Q 1056 3291 1056 2328 
Q 1056 1369 1301 889 
Q 1547 409 2034 409 
Q 2525 409 2770 889 
Q 3016 1369 3016 2328 
Q 3016 3291 2770 3770 
Q 2525 4250 2034 4250 
z
M 2034 4750 
Q 2819 4750 3233 4129 
Q 3647 3509 3647 2328 
Q 3647 1150 3233 529 
Q 2819 -91 2034 -91 
Q 1250 -91 836 529 
Q 422 1150 422 2328 
Q 422 3509 836 4129 
Q 1250 4750 2034 4750 
z
" transform="scale(0.015625)"/>
       </defs>
       <use xlink:href="#DejaVuSans-30"/>
      </g>
     </g>
    </g>
    <g id="ytick_2">
     <g id="line2d_4">
      <g>
       <use xlink:href="#m61db8572a4" x="44.66" y="239.689492" style="stroke: #000000; stroke-width: 0.8"/>
      </g>
     </g>
     <g id="text_4">
      <!-- 10 -->
      <g transform="translate(24.935 243.48871) scale(0.1 -0.1)">
       <defs>
        <path id="DejaVuSans-31" d="M 794 531 
L 1825 531 
L 1825 4091 
L 703 3866 
L 703 4441 
L 1819 4666 
L 2450 4666 
L 2450 531 
L 3481 531 
L 3481 0 
L 794 0 
L 794 531 
z
" transform="scale(0.015625)"/>
       </defs>
       <use xlink:href="#DejaVuSans-31"/>
       <use xlink:href="#DejaVuSans-30" x="63.623047"/>
      </g>
     </g>
    </g>
    <g id="ytick_3">
     <g id="line2d_5">
      <g>
       <use xlink:href="#m61db8572a4" x="44.66" y="187.669153" style="stroke: #000000; stroke-width: 0.8"/>
      </g>
     </g>
     <g id="text_5">
      <!-- 20 -->
      <g transform="translate(24.935 191.468371) scale(0.1 -0.1)">
       <defs>
        <path id="DejaVuSans-32" d="M 1228 531 
L 3431 531 
L 3431 0 
L 469 0 
L 469 531 
Q 828 903 1448 1529 
Q 2069 2156 2228 2338 
Q 2531 2678 2651 2914 
Q 2772 3150 2772 3378 
Q 2772 3750 2511 3984 
Q 2250 4219 1831 4219 
Q 1534 4219 1204 4116 
Q 875 4013 500 3803 
L 500 4441 
Q 881 4594 1212 4672 
Q 1544 4750 1819 4750 
Q 2544 4750 2975 4387 
Q 3406 4025 3406 3419 
Q 3406 3131 3298 2873 
Q 3191 2616 2906 2266 
Q 2828 2175 2409 1742 
Q 1991 1309 1228 531 
z
" transform="scale(0.015625)"/>
       </defs>
       <use xlink:href="#DejaVuSans-32"/>
       <use xlink:href="#DejaVuSans-30" x="63.623047"/>
      </g>
     </g>
    </g>
    <g id="ytick_4">
     <g id="line2d_6">
      <g>
       <use xlink:href="#m61db8572a4" x="44.66" y="135.648814" style="stroke: #000000; stroke-width: 0.8"/>
      </g>
     </g>
     <g id="text_6">
      <!-- 30 -->
      <g transform="translate(24.935 139.448032) scale(0.1 -0.1)">
       <defs>
        <path id="DejaVuSans-33" d="M 2597 2516 
Q 3050 2419 3304 2112 
Q 3559 1806 3559 1356 
Q 3559 666 3084 287 
Q 2609 -91 1734 -91 
Q 1441 -91 1130 -33 
Q 819 25 488 141 
L 488 750 
Q 750 597 1062 519 
Q 1375 441 1716 441 
Q 2309 441 2620 675 
Q 2931 909 2931 1356 
Q 2931 1769 2642 2001 
Q 2353 2234 1838 2234 
L 1294 2234 
L 1294 2753 
L 1863 2753 
Q 2328 2753 2575 2939 
Q 2822 3125 2822 3475 
Q 2822 3834 2567 4026 
Q 2313 4219 1838 4219 
Q 1578 4219 1281 4162 
Q 984 4106 628 3988 
L 628 4550 
Q 988 4650 1302 4700 
Q 1616 4750 1894 4750 
Q 2613 4750 3031 4423 
Q 3450 4097 3450 3541 
Q 3450 3153 3228 2886 
Q 3006 2619 2597 2516 
z
" transform="scale(0.015625)"/>
       </defs>
       <use xlink:href="#DejaVuSans-33"/>
       <use xlink:href="#DejaVuSans-30" x="63.623047"/>
      </g>
     </g>
    </g>
    <g id="ytick_5">
     <g id="line2d_7">
      <g>
       <use xlink:href="#m61db8572a4" x="44.66" y="83.628475" style="stroke: #000000; stroke-width: 0.8"/>
      </g>
     </g>
     <g id="text_7">
      <!-- 40 -->
      <g transform="translate(24.935 87.427693) scale(0.1 -0.1)">
       <defs>
        <path id="DejaVuSans-34" d="M 2419 4116 
L 825 1625 
L 2419 1625 
L 2419 4116 
z
M 2253 4666 
L 3047 4666 
L 3047 1625 
L 3713 1625 
L 3713 1100 
L 3047 1100 
L 3047 0 
L 2419 0 
L 2419 1100 
L 313 1100 
L 313 1709 
L 2253 4666 
z
" transform="scale(0.015625)"/>
       </defs>
       <use xlink:href="#DejaVuSans-34"/>
       <use xlink:href="#DejaVuSans-30" x="63.623047"/>
      </g>
     </g>
    </g>
    <g id="ytick_6">
     <g id="line2d_8">
      <g>
       <use xlink:href="#m61db8572a4" x="44.66" y="31.608136" style="stroke: #000000; stroke-width: 0.8"/>
      </g>
     </g>
     <g id="text_8">
      <!-- 50 -->
      <g transform="translate(24.935 35.407354) scale(0.1 -0.1)">
       <defs>
        <path id="DejaVuSans-35" d="M 691 4666 
L 3169 4666 
L 3169 4134 
L 1269 4134 
L 1269 2991 
Q 1406 3038 1543 3061 
Q 1681 3084 1819 3084 
Q 2600 3084 3056 2656 
Q 3513 2228 3513 1497 
Q 3513 744 3044 326 
Q 2575 -91 1722 -91 
Q 1428 -91 1123 -41 
Q 819 9 494 109 
L 494 744 
Q 775 591 1075 516 
Q 1375 441 1709 441 
Q 2250 441 2565 725 
Q 2881 1009 2881 1497 
Q 2881 1984 2565 2268 
Q 2250 2553 1709 2553 
Q 1456 2553 1204 2497 
Q 953 2441 691 2322 
L 691 4666 
z
" transform="scale(0.015625)"/>
       </defs>
       <use xlink:href="#DejaVuSans-35"/>
       <use xlink:href="#DejaVuSans-30" x="63.623047"/>
      </g>
     </g>
    </g>
    <g id="text_9">
     <!-- CADD score -->
     <g transform="translate(18.855313 193.893594) rotate(-90) scale(0.1 -0.1)">
      <defs>
       <path id="DejaVuSans-43" d="M 4122 4306 
L 4122 3641 
Q 3803 3938 3442 4084 
Q 3081 4231 2675 4231 
Q 1875 4231 1450 3742 
Q 1025 3253 1025 2328 
Q 1025 1406 1450 917 
Q 1875 428 2675 428 
Q 3081 428 3442 575 
Q 3803 722 4122 1019 
L 4122 359 
Q 3791 134 3420 21 
Q 3050 -91 2638 -91 
Q 1578 -91 968 557 
Q 359 1206 359 2328 
Q 359 3453 968 4101 
Q 1578 4750 2638 4750 
Q 3056 4750 3426 4639 
Q 3797 4528 4122 4306 
z
" transform="scale(0.015625)"/>
       <path id="DejaVuSans-44" d="M 1259 4147 
L 1259 519 
L 2022 519 
Q 2988 519 3436 956 
Q 3884 1394 3884 2338 
Q 3884 3275 3436 3711 
Q 2988 4147 2022 4147 
L 1259 4147 
z
M 628 4666 
L 1925 4666 
Q 3281 4666 3915 4102 
Q 4550 3538 4550 2338 
Q 4550 1131 3912 565 
Q 3275 0 1925 0 
L 628 0 
L 628 4666 
z
" transform="scale(0.015625)"/>
       <path id="DejaVuSans-73" d="M 2834 3397 
L 2834 2853 
Q 2591 2978 2328 3040 
Q 2066 3103 1784 3103 
Q 1356 3103 1142 2972 
Q 928 2841 928 2578 
Q 928 2378 1081 2264 
Q 1234 2150 1697 2047 
L 1894 2003 
Q 2506 1872 2764 1633 
Q 3022 1394 3022 966 
Q 3022 478 2636 193 
Q 2250 -91 1575 -91 
Q 1294 -91 989 -36 
Q 684 19 347 128 
L 347 722 
Q 666 556 975 473 
Q 1284 391 1588 391 
Q 1994 391 2212 530 
Q 2431 669 2431 922 
Q 2431 1156 2273 1281 
Q 2116 1406 1581 1522 
L 1381 1569 
Q 847 1681 609 1914 
Q 372 2147 372 2553 
Q 372 3047 722 3315 
Q 1072 3584 1716 3584 
Q 2034 3584 2315 3537 
Q 2597 3491 2834 3397 
z
" transform="scale(0.015625)"/>
       <path id="DejaVuSans-63" d="M 3122 3366 
L 3122 2828 
Q 2878 2963 2633 3030 
Q 2388 3097 2138 3097 
Q 1578 3097 1268 2742 
Q 959 2388 959 1747 
Q 959 1106 1268 751 
Q 1578 397 2138 397 
Q 2388 397 2633 464 
Q 2878 531 3122 666 
L 3122 134 
Q 2881 22 2623 -34 
Q 2366 -91 2075 -91 
Q 1284 -91 818 406 
Q 353 903 353 1747 
Q 353 2603 823 3093 
Q 1294 3584 2113 3584 
Q 2378 3584 2631 3529 
Q 2884 3475 3122 3366 
z
" transform="scale(0.015625)"/>
       <path id="DejaVuSans-72" d="M 2631 2963 
Q 2534 3019 2420 3045 
Q 2306 3072 2169 3072 
Q 1681 3072 1420 2755 
Q 1159 2438 1159 1844 
L 1159 0 
L 581 0 
L 581 3500 
L 1159 3500 
L 1159 2956 
Q 1341 3275 1631 3429 
Q 1922 3584 2338 3584 
Q 2397 3584 2469 3576 
Q 2541 3569 2628 3553 
L 2631 2963 
z
" transform="scale(0.015625)"/>
       <path id="DejaVuSans-65" d="M 3597 1894 
L 3597 1613 
L 953 1613 
Q 991 1019 1311 708 
Q 1631 397 2203 397 
Q 2534 397 2845 478 
Q 3156 559 3463 722 
L 3463 178 
Q 3153 47 2828 -22 
Q 2503 -91 2169 -91 
Q 1331 -91 842 396 
Q 353 884 353 1716 
Q 353 2575 817 3079 
Q 1281 3584 2069 3584 
Q 2775 3584 3186 3129 
Q 3597 2675 3597 1894 
z
M 3022 2063 
Q 3016 2534 2758 2815 
Q 2500 3097 2075 3097 
Q 1594 3097 1305 2825 
Q 1016 2553 972 2059 
L 3022 2063 
z
" transform="scale(0.015625)"/>
      </defs>
      <use xlink:href="#DejaVuSans-43"/>
      <use xlink:href="#DejaVuSans-41" x="69.824219"/>
      <use xlink:href="#DejaVuSans-44" x="138.232422"/>
      <use xlink:href="#DejaVuSans-44" x="215.234375"/>
      <use xlink:href="#DejaVuSans-20" x="292.236328"/>
      <use xlink:href="#DejaVuSans-73" x="324.023438"/>
      <use xlink:href="#DejaVuSans-63" x="376.123047"/>
      <use xlink:href="#DejaVuSans-6f" x="431.103516"/>
      <use xlink:href="#DejaVuSans-72" x="492.285156"/>
      <use xlink:href="#DejaVuSans-65" x="531.148438"/>
     </g>
    </g>
   </g>
   <g id="LineCollection_1">
    <path d="M 124.499697 31.608136 
L 370.160303 31.608136 
" clip-path="url(#pa47ede7062)" style="fill: none; stroke: #000000; stroke-width: 1.5"/>
   </g>
   <g id="patch_3">
    <path d="M 44.66 317.72 
L 44.66 10.8 
" style="fill: none; stroke: #000000; stroke-width: 0.8; stroke-linejoin: miter; stroke-linecap: square"/>
   </g>
   <g id="patch_4">
    <path d="M 450 317.72 
L 450 10.8 
" style="fill: none; stroke: #000000; stroke-width: 0.8; stroke-linejoin: miter; stroke-linecap: square"/>
   </g>
   <g id="patch_5">
    <path d="M 44.66 317.72 
L 450 317.72 
" style="fill: none; stroke: #000000; stroke-width: 0.8; stroke-linejoin: miter; stroke-linecap: square"/>
   </g>
   <g id="patch_6">
    <path d="M 44.66 10.8 
L 450 10.8 
" style="fill: none; stroke: #000000; stroke-width: 0.8; stroke-linejoin: miter; stroke-linecap: square"/>
   </g>
   <g id="text_10">
    <!-- 2.1E-07 -->
    <g transform="translate(105.222353 29.165477) scale(0.1 -0.1)">
     <defs>
      <path id="DejaVuSans-2e" d="M 684 794 
L 1344 794 
L 1344 0 
L 684 0 
L 684 794 
z
" transform="scale(0.015625)"/>
      <path id="DejaVuSans-45" d="M 628 4666 
L 3578 4666 
L 3578 4134 
L 1259 4134 
L 1259 2753 
L 3481 2753 
L 3481 2222 
L 1259 2222 
L 1259 531 
L 3634 531 
L 3634 0 
L 628 0 
L 628 4666 
z
" transform="scale(0.015625)"/>
      <path id="DejaVuSans-2d" d="M 313 2009 
L 1997 2009 
L 1997 1497 
L 313 1497 
L 313 2009 
z
" transform="scale(0.015625)"/>
      <path id="DejaVuSans-37" d="M 525 4666 
L 3525 4666 
L 3525 4397 
L 1831 0 
L 1172 0 
L 2766 4134 
L 525 4134 
L 525 4666 
z
" transform="scale(0.015625)"/>
     </defs>
     <use xlink:href="#DejaVuSans-32"/>
     <use xlink:href="#DejaVuSans-2e" x="63.623047"/>
     <use xlink:href="#DejaVuSans-31" x="95.410156"/>
     <use xlink:href="#DejaVuSans-45" x="159.033203"/>
     <use xlink:href="#DejaVuSans-2d" x="222.216797"/>
     <use xlink:href="#DejaVuSans-30" x="258.300781"/>
     <use xlink:href="#DejaVuSans-37" x="321.923828"/>
    </g>
   </g>
  </g>
 </g>
 <defs>
  <clipPath id="pa47ede7062">
   <rect x="44.66" y="10.8" width="405.34" height="306.92"/>
  </clipPath>
 </defs>
</svg>
